<svg width="10" height="11" viewBox="0 0 10 11" fill="none" xmlns="http://www.w3.org/2000/svg">
<path d="M8.33333 9.01389H1.66667C1.36111 9.01389 1.11111 8.76389 1.11111 8.45833V1.79167C1.11111 1.48611 1.36111 1.23611 1.66667 1.23611H4.44444C4.75 1.23611 5 0.986111 5 0.680556C5 0.375 4.75 0.125 4.44444 0.125H1.11111C0.816426 0.125 0.533811 0.242063 0.325437 0.450437C0.117063 0.658811 0 0.941426 0 1.23611V9.01389C0 9.625 0.5 10.125 1.11111 10.125H8.88889C9.5 10.125 10 9.625 10 9.01389V5.68056C10 5.375 9.75 5.125 9.44444 5.125C9.13889 5.125 8.88889 5.375 8.88889 5.68056V8.45833C8.88889 8.76389 8.63889 9.01389 8.33333 9.01389ZM6.11111 0.680556C6.11111 0.986111 6.36111 1.23611 6.66667 1.23611H8.10556L3.03333 6.30833C2.92946 6.41221 2.8711 6.5531 2.8711 6.7C2.8711 6.8469 2.92946 6.98779 3.03333 7.09167C3.13721 7.19554 3.2781 7.2539 3.425 7.2539C3.5719 7.2539 3.71279 7.19554 3.81667 7.09167L8.88889 2.01944V3.45833C8.88889 3.76389 9.13889 4.01389 9.44444 4.01389C9.75 4.01389 10 3.76389 10 3.45833V0.680556C10 0.375 9.75 0.125 9.44444 0.125H6.66667C6.36111 0.125 6.11111 0.375 6.11111 0.680556Z" fill="#E0462D"/>
</svg>
