<svg width="16" height="17" viewBox="0 0 16 17" fill="none" xmlns="http://www.w3.org/2000/svg">
<path d="M13.3333 14.3472H2.66667C2.17778 14.3472 1.77778 13.9472 1.77778 13.4583V2.79167C1.77778 2.30278 2.17778 1.90278 2.66667 1.90278H7.11111C7.6 1.90278 8 1.50278 8 1.01389C8 0.525 7.6 0.125 7.11111 0.125H1.77778C1.30628 0.125 0.854097 0.312301 0.520699 0.645699C0.187301 0.979097 0 1.43128 0 1.90278V14.3472C0 15.325 0.8 16.125 1.77778 16.125H14.2222C15.2 16.125 16 15.325 16 14.3472V9.01389C16 8.525 15.6 8.125 15.1111 8.125C14.6222 8.125 14.2222 8.525 14.2222 9.01389V13.4583C14.2222 13.9472 13.8222 14.3472 13.3333 14.3472ZM9.77778 1.01389C9.77778 1.50278 10.1778 1.90278 10.6667 1.90278H12.9689L4.85333 10.0183C4.68713 10.1845 4.59376 10.41 4.59376 10.645C4.59376 10.88 4.68713 11.1055 4.85333 11.2717C5.01954 11.4379 5.24495 11.5312 5.48 11.5312C5.71505 11.5312 5.94046 11.4379 6.10667 11.2717L14.2222 3.15611V5.45833C14.2222 5.94722 14.6222 6.34722 15.1111 6.34722C15.6 6.34722 16 5.94722 16 5.45833V1.01389C16 0.525 15.6 0.125 15.1111 0.125H10.6667C10.1778 0.125 9.77778 0.525 9.77778 1.01389Z" fill="white"/>
</svg>
