<svg width="16" height="17" viewBox="0 0 16 17" fill="none" xmlns="http://www.w3.org/2000/svg">
<g id="Icon/Other">
<g id="Vector">
<path fill-rule="evenodd" clip-rule="evenodd" d="M9.8318 10.7223C9.03669 11.3583 8.02812 11.7387 6.93071 11.7387C4.36381 11.7387 2.28292 9.65777 2.28292 7.09087C2.28292 4.52397 4.36381 2.44308 6.93071 2.44308C9.49762 2.44308 11.5785 4.52397 11.5785 7.09087C11.5785 8.18827 11.1982 9.19684 10.5621 9.99196L13.5999 13.0297L12.8696 13.76L9.8318 10.7223ZM10.5457 7.09087C10.5457 9.08735 8.92719 10.7058 6.93071 10.7058C4.93423 10.7058 3.31577 9.08735 3.31577 7.09087C3.31577 5.09439 4.93423 3.47592 6.93071 3.47592C8.92719 3.47592 10.5457 5.09439 10.5457 7.09087Z" fill="white"/>
<path fill-rule="evenodd" clip-rule="evenodd" d="M2 7.09087C2 4.36771 4.20756 2.16016 6.93071 2.16016C9.65387 2.16016 11.8614 4.36771 11.8614 7.09087C11.8614 8.1636 11.5186 9.15691 10.9366 9.96632L14 13.0297L12.8696 14.1602L9.80616 11.0968C8.99676 11.6787 8.00345 12.0216 6.93071 12.0216C4.20756 12.0216 2 9.81403 2 7.09087ZM6.93071 2.726C4.52006 2.726 2.56585 4.68022 2.56585 7.09087C2.56585 9.50152 4.52006 11.4557 6.93071 11.4557C7.96159 11.4557 8.9083 11.0987 9.65507 10.5014L9.85281 10.3432L12.8696 13.3599L13.1998 13.0297L10.183 10.013L10.3412 9.81523C10.9386 9.06846 11.2956 8.12175 11.2956 7.09087C11.2956 4.68022 9.34136 2.726 6.93071 2.726ZM3.03284 7.09087C3.03284 4.93813 4.77798 3.193 6.93071 3.193C9.08345 3.193 10.8286 4.93813 10.8286 7.09087C10.8286 9.2436 9.08345 10.9887 6.93071 10.9887C4.77798 10.9887 3.03284 9.2436 3.03284 7.09087ZM6.93071 3.75885C5.09049 3.75885 3.59869 5.25064 3.59869 7.09087C3.59869 8.9311 5.09049 10.4229 6.93071 10.4229C8.77094 10.4229 10.2627 8.9311 10.2627 7.09087C10.2627 5.25064 8.77094 3.75885 6.93071 3.75885Z" fill="white"/>
</g>
</g>
</svg>
