<svg width="24" height="24" viewBox="0 0 24 24" fill="none" xmlns="http://www.w3.org/2000/svg">
<mask id="mask0_7070_72874" style="mask-type:alpha" maskUnits="userSpaceOnUse" x="0" y="0" width="24" height="24">
<rect width="24" height="24" fill="#D9D9D9"/>
</mask>
<g mask="url(#mask0_7070_72874)">
<path fill-rule="evenodd" clip-rule="evenodd" d="M21.84 12C21.84 17.4345 17.4345 21.84 12 21.84C6.56552 21.84 2.16 17.4345 2.16 12C2.16 6.56552 6.56552 2.16 12 2.16C17.4345 2.16 21.84 6.56552 21.84 12ZM24 12C24 18.6274 18.6274 24 12 24C5.37258 24 0 18.6274 0 12C0 5.37258 5.37258 0 12 0C18.6274 0 24 5.37258 24 12ZM17.04 12C17.04 14.7835 14.7835 17.04 12 17.04C9.21649 17.04 6.96 14.7835 6.96 12C6.96 9.21649 9.21649 6.96 12 6.96C14.7835 6.96 17.04 9.21649 17.04 12ZM19.2 12C19.2 15.9764 15.9764 19.2 12 19.2C8.02355 19.2 4.8 15.9764 4.8 12C4.8 8.02355 8.02355 4.8 12 4.8C15.9764 4.8 19.2 8.02355 19.2 12Z" fill="#FF4021"/>
</g>
</svg>
