<svg xmlns="http://www.w3.org/2000/svg" xmlns:xlink="http://www.w3.org/1999/xlink" width="230.486" height="368.62" viewBox="0 0 230.486 368.62">
  <defs>
    <clipPath id="clip-path">
      <rect id="長方形_663" data-name="長方形 663" width="230.486" height="368.62" fill="none"/>
    </clipPath>
  </defs>
  <g id="脚" transform="translate(-477.268 -203)">
    <g id="img" transform="translate(477.268 203)">
      <g id="グループ_155" data-name="グループ 155" clip-path="url(#clip-path)">
        <path id="パス_845" data-name="パス 845" d="M101.819,204.007a3.482,3.482,0,0,0-.03-.574c-.658-4.818-2.011-13.616-2.591-17.365a11.152,11.152,0,0,0,.176-1.31c.623-8.575,4.47-32.752,1.311-46.682-3.386-44.3-1.118-43.773-4.119-55.74-3.513-14-13.276-16.179-20.5-16.819-2.745-1.157-6.483-2.48-9.584-3.528-1.907-1.765-3.191-3.417-3.317-4.738-.182-1.91-.009-12.874,0-13.16a10.139,10.139,0,0,0,1.087-1.95,26.112,26.112,0,0,0,1.124-4.068c.518-1.248,1.916-2.617,2.49-5.357.706-3.375,1.747-5.86.3-6.345h.256c1.057-7.724-.165-16.4-6.361-20.5A17.619,17.619,0,0,0,51.848,2.657h-.131A17.619,17.619,0,0,0,41.512,5.875c-6.2,4.1-7.418,12.772-6.361,20.5h.257c-1.449.485-.408,2.97.3,6.345.589,2.817,2.047,4.185,2.528,5.462q.074.362.154.717c0,.023.005.046.005.069h.01a23.785,23.785,0,0,0,.934,3.177,10.171,10.171,0,0,0,1.083,1.944h-.05s.18,11.231,0,13.167c-.125,1.316-1.405,2.962-3.309,4.72-3.111,1.051-6.876,2.382-9.635,3.546-7.225.64-16.988,2.814-20.5,16.819-3,11.968-.734,11.441-4.119,55.74-3.159,13.93.688,38.107,1.311,46.682a11.153,11.153,0,0,0,.176,1.31c-.581,3.749-1.933,12.547-2.591,17.365a3.48,3.48,0,0,0-.03.574c-.278,2.689-.537,6.568-.259,7.4.764,2.293,2.054,3.529,2.737,5.882s6.449,6.948,7.067,7.478c2.692,2.307,5.671-.481.856-3.994-1.489-1.087-2.846-3.7-3.428-4.833,1.086.812,2.308,1.7,2.86,2,2.788,1.538,5.286-.1,1.634-2.788a20.185,20.185,0,0,1-5-4.806l-.575,1.509c-.229-1.228-.415-2.382-.464-2.806-.066-.578-.077-2.092-.036-3.888a33.3,33.3,0,0,0,4.606-1.911c.849-1.213,2.545-8.439,1.973-16.157a6.122,6.122,0,0,0,.334-2.061c.228-25.457,6.7-32.228,4.373-45.745-.008-.043-.017-.082-.025-.125.049-.24.1-.479.138-.726,2.023-13.372.32-19.456,1.832-31.8a186.455,186.455,0,0,1,3.966,39.926c-2.556,10.538-4.685,26.5-4.353,38.418-.755,14.809-3.335,34.879-.166,59.689.5,3.9,1.572,11.422,2.27,22.266-.029.321-.06.637-.088.969-.3,3.665-.069,10.94-.191,13.364-.462,9.189-.006,11.172-.011,19.1-.006,8.215,2.2,29.786,2.124,34.378-.088,5.142.035,8.263-.233,12.065a15.631,15.631,0,0,0-.926,3.038c-1.365,6.751-6.847,10.94-4.764,16.063.273,2.485,6.042,1.811,10.032,1.964,4.811.184,9.081.957,9.338-1.874a124.53,124.53,0,0,0-.867-17.713,8.792,8.792,0,0,0-.5-2.073c-1.217-14.532,2.239-28.511,3.018-33.574.792-5.147,3.959-17.026,2.375-35.437-.008-.1-.02-.2-.029-.3.449-4.091,3.368-8.259,3.791-18.906.309-7.789,3.846-40.7,4.589-60.007a13.9,13.9,0,0,0,2.074-1.058A13.938,13.938,0,0,0,53.818,198c.743,19.309,4.279,52.217,4.589,60.007.422,10.647,3.341,14.815,3.791,18.906-.01.1-.021.2-.03.3-1.584,18.411,1.584,30.289,2.376,35.437.779,5.063,4.235,19.042,3.018,33.573a8.766,8.766,0,0,0-.5,2.073,124.529,124.529,0,0,0-.867,17.713c.257,2.831,4.528,2.058,9.338,1.874,3.99-.152,9.759.522,10.032-1.964,2.083-5.124-3.4-9.312-4.764-16.063a15.63,15.63,0,0,0-.926-3.038c-.268-3.8-.145-6.923-.233-12.064-.078-4.592,2.129-26.163,2.124-34.378-.005-7.925.451-9.908-.011-19.1-.122-2.423.111-9.7-.191-13.363-.028-.333-.058-.649-.088-.97.7-10.843,1.772-18.368,2.27-22.266,3.169-24.811.588-44.881-.166-59.691.332-11.919-1.8-27.88-4.353-38.416h0a186.463,186.463,0,0,1,3.966-39.926c1.512,12.342-.191,18.426,1.832,31.8.037.247.089.486.138.726-.008.043-.017.082-.025.125-2.324,13.516,4.145,20.288,4.373,45.745a6.134,6.134,0,0,0,.334,2.061c-.572,7.718,1.124,14.944,1.973,16.157a33.3,33.3,0,0,0,4.606,1.911c.041,1.8.03,3.309-.036,3.888-.049.424-.235,1.579-.464,2.806l-.575-1.509a20.185,20.185,0,0,1-5,4.806c-3.652,2.692-1.154,4.325,1.634,2.788.552-.305,1.775-1.191,2.861-2-.582,1.132-1.939,3.746-3.428,4.833-4.815,3.514-1.836,6.3.856,3.994.618-.53,6.384-5.125,7.067-7.478s1.973-3.589,2.737-5.882c.279-.835.019-4.714-.259-7.4" transform="translate(-0.637 -1.311)" fill="#fff"/>
        <path id="パス_846" data-name="パス 846" d="M29.374,714.986c-.61.892-.12,3.483,1.487,3.5,1.918.022,2.657-.869,3.477-2.657l-2.586-5.062a11.942,11.942,0,0,1-2.379,4.218" transform="translate(-14.387 -351.17)" fill="#fff"/>
        <path id="パス_847" data-name="パス 847" d="M33.935,714.467a.722.722,0,0,0-.959.356c-.763,1.664-1.278,2.245-2.811,2.235a.891.891,0,0,1-.754-.583,2.217,2.217,0,0,1-.145-1.788c.119-.174.267-.367.429-.581a10.258,10.258,0,0,0,2.058-3.88.723.723,0,0,0-1.409-.33,9.036,9.036,0,0,1-1.8,3.335c-.179.235-.34.448-.471.639a3.507,3.507,0,0,0,.055,3.272,2.315,2.315,0,0,0,2.021,1.362h.075c2.219,0,3.174-1.132,4.067-3.079a.723.723,0,0,0-.356-.958" transform="translate(-13.683 -350.463)"/>
        <path id="パス_848" data-name="パス 848" d="M33.95,716.31c-.61.892-.732,3.812,1.356,3.835s3.991.719,4.429-2.646l-4.2-3.427a12.479,12.479,0,0,1-1.586,2.239" transform="translate(-16.581 -352.802)" fill="#fff"/>
        <path id="パス_849" data-name="パス 849" d="M39.123,716.075a.722.722,0,0,0-.81.623c-.287,2.2-1.064,2.158-2.767,2.057-.306-.018-.62-.036-.937-.04a.842.842,0,0,1-.82-.487,2.723,2.723,0,0,1,.053-2.217,7.16,7.16,0,0,1,.553-.7,6.645,6.645,0,0,0,1.085-1.625.723.723,0,0,0-1.3-.64,5.17,5.17,0,0,1-.881,1.319,8.756,8.756,0,0,0-.653.832,4.093,4.093,0,0,0-.141,3.7,2.282,2.282,0,0,0,2.086,1.266c.294,0,.585.021.869.037s.6.036.908.036c1.479,0,3-.419,3.379-3.348a.723.723,0,0,0-.623-.811" transform="translate(-15.875 -352.095)"/>
        <path id="パス_850" data-name="パス 850" d="M40.538,716.7c-.813.8-.282,3.572,1.473,3.592,1.861.021,3.549.077,4.429-2.646l-3.785-3.361a8.289,8.289,0,0,1-2.117,2.415" transform="translate(-19.844 -352.905)" fill="#fff"/>
        <path id="パス_851" data-name="パス 851" d="M45.957,716.247a.722.722,0,0,0-.91.465c-.7,2.18-1.871,2.167-3.66,2.147h-.074c-.544-.007-.833-.52-.956-.825a1.78,1.78,0,0,1-.017-1.53c.2-.2.375-.348.533-.485a7.077,7.077,0,0,0,1.693-2.067.723.723,0,1,0-1.235-.751,5.779,5.779,0,0,1-1.4,1.724c-.18.155-.374.323-.606.552a3.013,3.013,0,0,0-.308,3.1A2.523,2.523,0,0,0,41.3,720.3h.073c.157,0,.317,0,.477,0,1.757,0,3.63-.224,4.576-3.152a.723.723,0,0,0-.465-.91" transform="translate(-19.139 -352.199)"/>
        <path id="パス_852" data-name="パス 852" d="M49.255,715.84c-.61.892-.4,4.033,1.69,4.056s4.254.5,4.7-3.2l-4.156-3.755c-.323,1.807-1.623,2-2.233,2.9" transform="translate(-24.188 -352.244)" fill="#fff"/>
        <path id="パス_853" data-name="パス 853" d="M55.025,715.276a.721.721,0,0,0-.8.632c-.321,2.676-1.453,2.639-3.339,2.577-.21-.007-.422-.014-.632-.016a1.043,1.043,0,0,1-.977-.662,2.915,2.915,0,0,1-.125-2.263,2.982,2.982,0,0,1,.646-.6,3.874,3.874,0,0,0,1.7-2.577.723.723,0,1,0-1.424-.255,2.44,2.44,0,0,1-1.163,1.688,4.121,4.121,0,0,0-.955.927,4.191,4.191,0,0,0,.036,3.747,2.493,2.493,0,0,0,2.242,1.44c.2,0,.4.01.6.015.231.008.473.016.721.016,1.713,0,3.682-.378,4.1-3.866a.723.723,0,0,0-.632-.8" transform="translate(-23.483 -351.539)"/>
        <path id="パス_854" data-name="パス 854" d="M60.306,713.336c-1.547,2.286-4.095,6.317,1.651,6.317,3.769,0,3.977-1.248,3.675-7.7Z" transform="translate(-28.847 -351.756)" fill="#fff"/>
        <path id="パス_855" data-name="パス 855" d="M64.895,710.527a.723.723,0,0,0-.689.756c.157,3.355.2,5.612-.531,6.383-.373.391-1.1.558-2.421.558-1.479,0-2.45-.294-2.734-.827-.558-1.052,1.011-3.371,1.681-4.362a.723.723,0,0,0-1.2-.811c-.953,1.409-2.726,4.031-1.761,5.851.57,1.074,1.882,1.6,4.011,1.6a4.626,4.626,0,0,0,3.468-1.005c1.1-1.156,1.13-3.158.929-7.449a.727.727,0,0,0-.756-.688" transform="translate(-28.144 -351.05)"/>
        <path id="パス_856" data-name="パス 856" d="M165.459,710.765l-2.586,5.063c.82,1.788,1.558,2.678,3.477,2.657,1.607-.018,2.1-2.61,1.487-3.5a11.938,11.938,0,0,1-2.379-4.218" transform="translate(-80.471 -351.168)" fill="#fff"/>
        <path id="パス_857" data-name="パス 857" d="M167.258,713.23a9.034,9.034,0,0,1-1.8-3.335.723.723,0,0,0-1.408.33,10.243,10.243,0,0,0,2.058,3.88c.162.213.309.407.428.58a2.217,2.217,0,0,1-.145,1.789.891.891,0,0,1-.754.582c-1.509.007-2.048-.571-2.812-2.235a.723.723,0,1,0-1.314.6c.893,1.948,1.849,3.079,4.067,3.079h.075a2.316,2.316,0,0,0,2.02-1.362,3.5,3.5,0,0,0,.056-3.272c-.131-.191-.292-.4-.471-.639" transform="translate(-79.764 -350.462)"/>
        <path id="パス_858" data-name="パス 858" d="M160.739,714.069l-4.2,3.428c.438,3.365,2.341,2.67,4.429,2.646s1.966-2.943,1.356-3.835a12.5,12.5,0,0,1-1.586-2.239" transform="translate(-77.342 -352.8)" fill="#fff"/>
        <path id="パス_859" data-name="パス 859" d="M161.563,714.361a5.21,5.21,0,0,1-.881-1.319.723.723,0,0,0-1.3.64,6.655,6.655,0,0,0,1.085,1.625,7.325,7.325,0,0,1,.554.7,2.723,2.723,0,0,1,.052,2.216.844.844,0,0,1-.821.488c-.318,0-.631.021-.936.04-1.709.1-2.481.146-2.767-2.057a.723.723,0,0,0-1.434.187c.381,2.93,1.9,3.349,3.379,3.349.308,0,.614-.017.908-.035s.573-.034.868-.038a2.281,2.281,0,0,0,2.086-1.267,4.091,4.091,0,0,0-.142-3.7,8.619,8.619,0,0,0-.653-.831" transform="translate(-76.636 -352.094)"/>
        <path id="パス_860" data-name="パス 860" d="M153.524,714.279l-3.785,3.36c.88,2.723,2.568,2.667,4.429,2.646,1.755-.02,2.286-2.788,1.473-3.592a8.289,8.289,0,0,1-2.117-2.414" transform="translate(-73.982 -352.904)" fill="#fff"/>
        <path id="パス_861" data-name="パス 861" d="M154.837,714.921a5.768,5.768,0,0,1-1.4-1.724.723.723,0,0,0-1.236.752,7.1,7.1,0,0,0,1.693,2.067c.158.137.329.284.533.485a1.778,1.778,0,0,1-.016,1.53c-.123.305-.412.819-.957.826h-.074c-1.777.021-2.954.034-3.659-2.146a.723.723,0,1,0-1.376.445c.947,2.928,2.82,3.151,4.578,3.151.159,0,.317,0,.474,0h.074a2.524,2.524,0,0,0,2.281-1.73,3.014,3.014,0,0,0-.308-3.1c-.232-.229-.426-.4-.606-.552" transform="translate(-73.275 -352.198)"/>
        <path id="パス_862" data-name="パス 862" d="M144.288,712.943l-4.156,3.755c.444,3.7,2.609,3.221,4.7,3.2s2.3-3.165,1.69-4.057-1.909-1.088-2.233-2.9" transform="translate(-69.235 -352.244)" fill="#fff"/>
        <path id="パス_863" data-name="パス 863" d="M145.456,713.8a2.444,2.444,0,0,1-1.162-1.688.723.723,0,1,0-1.424.254,3.873,3.873,0,0,0,1.7,2.577,2.966,2.966,0,0,1,.646.6,2.914,2.914,0,0,1-.125,2.264,1.043,1.043,0,0,1-.977.661c-.21,0-.422.009-.633.016-1.884.063-3.018.1-3.339-2.577a.723.723,0,0,0-1.436.172c.419,3.488,2.388,3.866,4.1,3.865.247,0,.489-.008.72-.015.2-.006.4-.013.6-.015a2.5,2.5,0,0,0,2.242-1.441,4.192,4.192,0,0,0,.036-3.747,4.128,4.128,0,0,0-.955-.927" transform="translate(-68.529 -351.538)"/>
        <path id="パス_864" data-name="パス 864" d="M129.507,711.953c-.3,6.449-.094,7.7,3.675,7.7,5.746,0,3.2-4.031,1.65-6.317Z" transform="translate(-63.938 -351.755)" fill="#fff"/>
        <path id="パス_865" data-name="パス 865" d="M133.722,712.028a.723.723,0,0,0-.194,1c.67.99,2.24,3.31,1.682,4.362-.283.534-1.254.827-2.734.827-1.324,0-2.049-.167-2.421-.558-.736-.771-.688-3.028-.531-6.383a.723.723,0,0,0-1.444-.068c-.2,4.293-.174,6.294.929,7.45a4.625,4.625,0,0,0,3.468,1.006c2.129,0,3.441-.522,4.011-1.6.966-1.82-.808-4.441-1.762-5.85a.723.723,0,0,0-1-.194" transform="translate(-63.233 -351.049)"/>
        <path id="パス_866" data-name="パス 866" d="M93.121,383.881c4.395,0,7.958-1.021,7.958-9.415H85.163c0,8.394,3.563,9.415,7.958,9.415" transform="translate(-42.077 -185.013)" fill="#fff"/>
        <path id="パス_867" data-name="パス 867" d="M100.374,373.037a.723.723,0,0,0-.723.723c0,8.038-3.277,8.692-7.235,8.692s-7.235-.654-7.235-8.692a.723.723,0,1,0-1.446,0c0,8.414,3.471,10.138,8.681,10.138s8.681-1.724,8.681-10.138a.723.723,0,0,0-.723-.723" transform="translate(-41.37 -184.306)"/>
        <path id="パス_868" data-name="パス 868" d="M96.662,380.367c2.915,0,4.193-1.783,4.332-14.454H92.329c.14,12.672,1.418,14.454,4.333,14.454" transform="translate(-45.617 -180.787)" fill="#fff"/>
        <path id="パス_869" data-name="パス 869" d="M100.3,364.483a.725.725,0,0,0-.731.715c-.142,12.814-1.458,13.739-3.61,13.739s-3.468-.925-3.61-13.739a.715.715,0,0,0-.731-.715.723.723,0,0,0-.715.731c.133,12.05,1.172,15.169,5.055,15.169s4.923-3.119,5.055-15.169a.723.723,0,0,0-.715-.731" transform="translate(-44.911 -180.08)"/>
        <path id="パス_870" data-name="パス 870" d="M100.447,295.291a.723.723,0,0,0-.723.723v2.108a.723.723,0,1,0,1.446,0v-2.108a.723.723,0,0,0-.723-.723" transform="translate(-49.271 -145.894)"/>
        <path id="パス_871" data-name="パス 871" d="M61.443,278.014c.685-5.965-.372-16.33-.993-20.414a.723.723,0,0,0-1.43.217c.611,4.023,1.654,14.212.986,20.032a36.918,36.918,0,0,0,5.449,23.325.723.723,0,1,0,1.229-.761,35.464,35.464,0,0,1-5.241-22.4" transform="translate(-29.156 -126.969)"/>
        <path id="パス_872" data-name="パス 872" d="M135.08,256.994a.724.724,0,0,0-.823.606c-.62,4.084-1.677,14.448-.992,20.414a35.464,35.464,0,0,1-5.241,22.4.723.723,0,1,0,1.229.761,36.915,36.915,0,0,0,5.449-23.325c-.668-5.821.375-16.01.985-20.032a.723.723,0,0,0-.607-.823" transform="translate(-63.199 -126.969)"/>
        <path id="パス_873" data-name="パス 873" d="M100.476,342.526a128.266,128.266,0,0,0-1-18.2c-3.224,3.719-20.455,4.232-30.943,4.238s-27.665-.525-30.883-4.238a128.266,128.266,0,0,0-1,18.2c.168,7.411-1.9,19.193-1.37,21.44,6.367,8.5,30.085,1.863,30.752.233a18.673,18.673,0,0,0,.505-3.931s.914.012,1.82.015h.405c.907,0,1.82-.015,1.82-.015a18.672,18.672,0,0,0,.505,3.931c.667,1.631,24.386,8.266,30.752-.233.534-2.247-1.538-14.029-1.37-21.44" transform="translate(-17.39 -160.24)" fill="#747a7f"/>
        <path id="パス_874" data-name="パス 874" d="M100.493,341.836a129.988,129.988,0,0,0-1-18.315.723.723,0,0,0-1.262-.374c-1.287,1.484-6.945,3.976-30.4,3.988-23.4-.017-29.053-2.506-30.338-3.988a.723.723,0,0,0-1.262.374,130.205,130.205,0,0,0-1,18.315,117.171,117.171,0,0,1-.883,13.183c-.479,4.611-.737,7.275-.468,8.407a.729.729,0,0,0,.125.266c2.695,3.6,8.1,4.52,12.941,4.52a46.192,46.192,0,0,0,5.79-.389c5.666-.725,12.7-2.656,13.27-4.058a14.362,14.362,0,0,0,.524-3.475l1.132.008h.408c.4,0,.805,0,1.13-.007a14.4,14.4,0,0,0,.525,3.474c.573,1.4,7.6,3.333,13.271,4.058,5.327.683,14.846,1.052,18.73-4.131a.734.734,0,0,0,.125-.266c.269-1.132.011-3.8-.468-8.406a117.07,117.07,0,0,1-.883-13.185m-.03,21.118c-1.779,2.261-5.112,3.531-9.91,3.778-8.614.445-18.506-2.648-19.521-3.579a18.138,18.138,0,0,1-.427-3.618.744.744,0,0,0-.732-.7s-.911.011-1.811.016h-.4c-.9,0-1.812-.015-1.813-.015h-.009a.723.723,0,0,0-.722.7,18.1,18.1,0,0,1-.428,3.618c-1.014.931-10.9,4.021-19.52,3.579-4.8-.247-8.132-1.517-9.911-3.778a52.486,52.486,0,0,1,.526-7.785,117.937,117.937,0,0,0,.89-13.366A129.332,129.332,0,0,1,37.5,325c3.825,2.367,14,3.571,30.326,3.583,16.357-.008,26.555-1.212,30.385-3.583a129.174,129.174,0,0,1,.832,16.8,118.179,118.179,0,0,0,.89,13.367,52.474,52.474,0,0,1,.526,7.784m.677.306h0Z" transform="translate(-16.683 -159.534)"/>
        <path id="パス_875" data-name="パス 875" d="M105.262,16.332a.852.852,0,0,0-.369.086c-1.23.6-3.581.655-6.071.712-3.484.079-7.088.162-8.814,1.825a.841.841,0,0,0-.023,1.192.842.842,0,0,0,1.189.021c1.254-1.208,4.524-1.284,7.691-1.357,2.677-.061,5.206-.118,6.766-.881a.842.842,0,0,0-.369-1.6" transform="translate(-44.342 -8.069)"/>
        <path id="パス_876" data-name="パス 876" d="M99.861,12.539a.842.842,0,0,0-.138-1.675l-.1.008c-1.976.275-3.864.444-5.689.606-6.436.574-11.52,1.028-13.909,5.354a.842.842,0,1,0,1.474.813c1.956-3.543,6.664-3.962,12.631-4.494,1.833-.163,3.73-.332,5.729-.613" transform="translate(-39.488 -5.368)"/>
        <path id="パス_877" data-name="パス 877" d="M105.035,16.607c-1.25.611-3.612.665-6.115.722-3.465.079-7.047.16-8.744,1.8a.74.74,0,0,0-.02,1.05.741.741,0,0,0,1.046.018c1.283-1.235,4.575-1.311,7.765-1.385,2.664-.061,5.179-.119,6.718-.871a.74.74,0,0,0-.324-1.406.748.748,0,0,0-.325.075" transform="translate(-44.441 -8.168)"/>
        <path id="パス_878" data-name="パス 878" d="M80.51,17.987a.743.743,0,0,0,.354.091.734.734,0,0,0,.648-.383c1.982-3.59,6.716-4.012,12.718-4.546,1.83-.164,3.722-.332,5.716-.611a.741.741,0,0,0-.117-1.474l-.09.008c-1.986.277-3.871.445-5.694.607-6.406.571-11.466,1.022-13.829,5.3a.744.744,0,0,0,.295,1.007" transform="translate(-39.587 -5.466)"/>
        <path id="パス_879" data-name="パス 879" d="M126.413,365.777a.723.723,0,0,0,.322-.076,28.005,28.005,0,0,0,5.5-4.32c1.793-1.644,3.646-3.344,4.71-3.576a.723.723,0,0,0-.308-1.413c-1.446.316-3.269,1.987-5.38,3.923a27.233,27.233,0,0,1-5.166,4.091.723.723,0,0,0,.323,1.37" transform="translate(-62.1 -176.074)"/>
        <path id="パス_880" data-name="パス 880" d="M64.995,365.376a.724.724,0,0,0-.325-.97,27.241,27.241,0,0,1-5.166-4.092c-2.11-1.936-3.933-3.607-5.379-3.923a.723.723,0,1,0-.309,1.413c1.064.232,2.918,1.932,4.71,3.576a28.028,28.028,0,0,0,5.5,4.319.722.722,0,0,0,.97-.324" transform="translate(-26.308 -176.074)"/>
        <path id="パス_881" data-name="パス 881" d="M80.324,474.567a.719.719,0,0,0-.755.69A79.529,79.529,0,0,1,76.586,493.7c-.959,3.639-1.717,6.513-1.371,9.627a.723.723,0,0,0,.717.644.749.749,0,0,0,.081,0,.723.723,0,0,0,.638-.8c-.316-2.847.375-5.469,1.332-9.1a80.821,80.821,0,0,0,3.029-18.746.723.723,0,0,0-.69-.755" transform="translate(-37.12 -234.469)"/>
        <path id="パス_882" data-name="パス 882" d="M68.972,542.752a.723.723,0,0,0-.818.613,6.3,6.3,0,0,1-1.114,2.6,11.614,11.614,0,0,0-1.785,4.26.723.723,0,0,0,.567.851.714.714,0,0,0,.143.014.722.722,0,0,0,.708-.581,10.239,10.239,0,0,1,1.595-3.781,7.629,7.629,0,0,0,1.317-3.158.723.723,0,0,0-.614-.818" transform="translate(-32.234 -268.154)"/>
        <path id="パス_883" data-name="パス 883" d="M116.991,475.257a.723.723,0,1,0-1.444.066,80.8,80.8,0,0,0,3.029,18.746c.956,3.63,1.648,6.253,1.332,9.1a.723.723,0,0,0,.639.8.766.766,0,0,0,.081,0,.724.724,0,0,0,.717-.644c.346-3.114-.412-5.988-1.371-9.627a79.5,79.5,0,0,1-2.983-18.443" transform="translate(-57.088 -234.469)"/>
        <path id="パス_884" data-name="パス 884" d="M131.017,545.965a6.287,6.287,0,0,1-1.114-2.6.723.723,0,1,0-1.432.2,7.624,7.624,0,0,0,1.317,3.158,10.251,10.251,0,0,1,1.595,3.781.722.722,0,0,0,.708.581.743.743,0,0,0,.143-.013.723.723,0,0,0,.567-.851,11.608,11.608,0,0,0-1.784-4.26" transform="translate(-63.47 -268.154)"/>
        <path id="パス_885" data-name="パス 885" d="M100.447,167.394a.723.723,0,0,0-.723.723v16.805a.723.723,0,1,0,1.446,0V168.117a.723.723,0,0,0-.723-.723" transform="translate(-49.271 -82.704)"/>
        <path id="パス_886" data-name="パス 886" d="M101.976,202.767a4.16,4.16,0,0,0-.037-.643c-.655-4.79-2-13.569-2.575-17.255a11.756,11.756,0,0,0,.164-1.269c.126-1.747.393-4.183.7-7,1.245-11.412,3.127-28.649.607-39.838-1.563-20.458-1.913-31.2-2.146-38.306-.261-8-.359-11-1.989-17.5C93.194,66.971,83.643,64.317,75.674,63.595c-3.036-1.272-7.1-2.73-10.27-3.792a5.839,5.839,0,0,1-1.692-2.9c-.171-1.8-.023-12.015-.006-13.174v-.03l.016-.025a10.439,10.439,0,0,0,1.054-1.942,26.416,26.416,0,0,0,1.156-4.176,9.486,9.486,0,0,1,.675-1.2,12.652,12.652,0,0,0,1.91-4.411c.148-.708.311-1.372.486-2.091.521-2.13.9-3.669.211-4.636-.018-.025-.083-.108-.083-.108l.006-.042c.6-4.677,1.128-16.125-6.852-21.4A18.83,18.83,0,0,0,51.685.2c-.115,0-.228,0-.32,0,0,0-.335,0-.446,0A18.761,18.761,0,0,0,40.347,3.63c-8.019,5.307-7.493,16.757-6.894,21.434l.005.043s-.065.082-.083.108c-.686.967-.309,2.507.212,4.638.161.657.328,1.337.486,2.088a12.67,12.67,0,0,0,1.912,4.413,9.351,9.351,0,0,1,.688,1.218c.049.237.1.471.143.629a.615.615,0,0,0,.05.254,25,25,0,0,0,.968,3.27,10.146,10.146,0,0,0,1,1.856l.016.025v.029c.018,1.169.166,11.476,0,13.262A5.67,5.67,0,0,1,37.229,59.7c-3.2,1.067-7.428,2.581-10.551,3.89-7.969.722-17.52,3.376-21.025,17.353-1.632,6.5-1.729,9.5-1.99,17.5-.232,7.108-.582,17.848-2.145,38.306C-1,147.947.879,165.183,2.124,176.6c.308,2.821.574,5.257.7,7a11.751,11.751,0,0,0,.163,1.269c-.571,3.688-1.919,12.468-2.574,17.255a4.2,4.2,0,0,0-.037.643c-.119,1.167-.63,6.435-.221,7.661a15.8,15.8,0,0,0,1.382,2.915,13.068,13.068,0,0,1,1.346,2.94c.459,1.583,2.752,4.066,7.01,7.591.13.108.227.188.281.235a3.356,3.356,0,0,0,3.315.863,1.953,1.953,0,0,0,1.271-1.606c.105-.789-.123-2.407-2.833-4.385a7.43,7.43,0,0,1-1.565-1.742c.082.051.156.094.222.13,1.758.97,3.6.895,4.286-.175.32-.5.779-1.874-1.874-3.828a19.967,19.967,0,0,1-4.811-4.6.723.723,0,0,0-.836-.309c-.048-.309-.083-.55-.1-.691-.054-.471-.07-1.728-.042-3.278a34.271,34.271,0,0,0,4.227-1.8.724.724,0,0,0,.26-.227c1.056-1.508,2.649-8.889,2.112-16.48a6.868,6.868,0,0,0,.326-2.146,126.737,126.737,0,0,1,3.11-27.126c1.364-6.606,2.442-11.825,1.252-18.746.042-.2.083-.41.115-.621A107.624,107.624,0,0,0,19.728,119.9c.007-2.971.014-6.011.25-9.491a192.307,192.307,0,0,1,2.991,34.863c-2.346,9.7-4.7,25.849-4.354,38.5-.146,2.848-.36,5.9-.585,9.132-.954,13.621-2.14,30.572.424,50.657l.188,1.44c.545,4.169,1.456,11.142,2.074,20.724l-.017.18c-.023.243-.046.487-.066.741-.186,2.26-.173,5.763-.16,8.854.007,1.933.014,3.6-.033,4.533-.3,5.918-.216,8.879-.12,12.307.054,1.962.11,3.991.109,6.826,0,4.538.662,13.092,1.249,20.639.468,6.012.91,11.69.875,13.727-.031,1.772-.035,3.305-.04,4.709-.01,2.665-.017,4.779-.183,7.2a16.524,16.524,0,0,0-.922,3.064,25.561,25.561,0,0,1-2.835,6.971c-1.66,3.132-3.231,6.092-1.927,9.419.382,2.512,4.307,2.494,8.1,2.479.927,0,1.8-.008,2.613.024.743.028,1.473.071,2.178.112,1.018.06,2.023.118,2.956.118,2.659,0,4.744-.476,4.952-2.761.272-2.995-.158-11.842-.869-17.863a9.512,9.512,0,0,0-.5-2.147c-.977-11.885,1.225-23.6,2.409-29.894.254-1.354.475-2.523.611-3.411.123-.8.306-1.769.517-2.9a113.917,113.917,0,0,0,1.865-32.712l-.023-.232a24.1,24.1,0,0,1,1.123-4.369,49.827,49.827,0,0,0,2.663-14.512c.118-2.985.706-9.589,1.449-17.95,1.18-13.272,2.645-29.747,3.122-41.6a14.538,14.538,0,0,0,1.37-.7,14.87,14.87,0,0,0,1.371.7c.477,11.854,1.942,28.33,3.122,41.6.744,8.361,1.331,14.965,1.449,17.95a49.835,49.835,0,0,0,2.663,14.513,24.145,24.145,0,0,1,1.124,4.368l-.023.231a113.9,113.9,0,0,0,1.864,32.712c.211,1.127.395,2.1.517,2.9.136.888.356,2.057.611,3.41,1.185,6.3,3.387,18.009,2.409,29.894a9.5,9.5,0,0,0-.5,2.147c-.711,6.022-1.141,14.869-.869,17.862.279,3.088,3.986,2.873,7.909,2.643.7-.041,1.434-.084,2.177-.112.811-.031,1.685-.027,2.612-.023,3.8.016,7.716.033,8.1-2.479,1.3-3.327-.265-6.287-1.926-9.419a25.559,25.559,0,0,1-2.835-6.971,16.558,16.558,0,0,0-.921-3.064c-.166-2.423-.174-4.539-.183-7.207,0-1.4-.01-2.931-.04-4.7-.034-2.038.407-7.717.875-13.729.587-7.546,1.253-16.1,1.249-20.637,0-2.834.055-4.862.109-6.823.1-3.429.177-6.39-.12-12.309-.047-.93-.04-2.6-.032-4.539.012-3.088.026-6.588-.16-8.847-.021-.26-.045-.508-.067-.758l-.016-.164c.618-9.578,1.529-16.55,2.074-20.718l.188-1.445c2.565-20.085,1.378-37.037.425-50.657-.226-3.232-.44-6.285-.586-9.133.348-12.645-2.008-28.79-4.354-38.5a192.233,192.233,0,0,1,2.991-34.863c.236,3.48.244,6.521.25,9.493a107.629,107.629,0,0,0,1.119,17.434c.032.211.073.417.115.622-1.189,6.921-.112,12.14,1.252,18.746a126.742,126.742,0,0,1,3.111,27.116,6.893,6.893,0,0,0,.325,2.157c-.536,7.591,1.056,14.971,2.112,16.48a.728.728,0,0,0,.26.227,34.365,34.365,0,0,0,4.226,1.8c.028,1.548.013,2.806-.042,3.279-.016.142-.051.383-.1.692a.745.745,0,0,0-.151-.031.727.727,0,0,0-.684.337,20,20,0,0,1-4.813,4.6c-2.653,1.954-2.195,3.329-1.874,3.828.685,1.07,2.528,1.144,4.287.175.065-.036.14-.08.223-.131a7.439,7.439,0,0,1-1.566,1.743c-2.71,1.978-2.938,3.6-2.833,4.385a1.95,1.95,0,0,0,1.271,1.606,3.359,3.359,0,0,0,3.314-.863c.055-.047.151-.126.282-.235,4.258-3.525,6.551-6.008,7.01-7.591a13.067,13.067,0,0,1,1.346-2.94,15.837,15.837,0,0,0,1.382-2.915c.414-1.247-.136-6.824-.221-7.661M67.556,29.539c-.154.629-.328,1.342-.487,2.1q-.046.219-.1.431l-.2-.036c.248-2.323.348-4.3.384-5.277v-.028l.015-.023a4.208,4.208,0,0,1,.567-.71l.041-.039.056.016a.3.3,0,0,1,.173.1c.273.385-.026,1.727-.452,3.467m-31.9,2.67q-.076-.279-.136-.57c-.151-.725-.318-1.411-.5-2.138-.419-1.707-.717-3.043-.443-3.43a.3.3,0,0,1,.172-.1l.056-.016.041.039a4.253,4.253,0,0,1,.6.762l.015.023v.027c.038,1.007.14,3.043.386,5.364Zm2.629,5.836a2.746,2.746,0,0,0-.181-.843,71.386,71.386,0,0,1-1.2-12.664c0-.359-.005-.738-.011-1.137-.044-2.927-.1-6.934,2.193-10.516a.741.741,0,0,0,.1-.559.741.741,0,0,0-1.346-.241c-2.538,3.958-2.473,8.223-2.427,11.34v.057c.006.334.011.655.012.961v.148l-.138-.053a1.162,1.162,0,0,0-.33-.073l-.084-.006-.01-.083c-.487-4.289-.842-14.781,6.344-19.539a17.222,17.222,0,0,1,9.7-3.153c.1,0,.208,0,.331,0,.03,0,.356,0,.457,0a17.314,17.314,0,0,1,9.736,3.183c7.149,4.732,6.789,15.219,6.3,19.508l-.01.084-.084.005a1.135,1.135,0,0,0-.313.068l-.133.049,0-.142c-.009-.43-.007-.891-.005-1.391.013-3.02.031-7.156-2.409-10.964a.67.67,0,0,0-.1-.122l-.1-.091.115-.07c.315-.189.5-.319.534-.341a.73.73,0,0,0,.3-.482.723.723,0,0,0-.124-.547.739.739,0,0,0-.606-.315.764.764,0,0,0-.429.136,13.97,13.97,0,0,1-7.044,2.239.74.74,0,1,0,0,1.481,14.361,14.361,0,0,0,5.961-1.425l.119-.056.023.129a.746.746,0,0,0,.1.266c2.2,3.433,2.186,7.184,2.174,10.2,0,.521,0,1.012.007,1.472.01.41.005,1.05-.014,1.818a.537.537,0,0,0-.011.149,71.333,71.333,0,0,1-1.154,10.552,2.884,2.884,0,0,0-.229,1.048,23.286,23.286,0,0,1-.906,3.076,9.341,9.341,0,0,1-.973,1.766.64.64,0,0,0-.1.144,52.946,52.946,0,0,1-5.414,6.26,6.9,6.9,0,0,1-5.6,2.265,6.9,6.9,0,0,1-5.6-2.265c-1.645-1.656-5.569-5.767-6.489-8.17a23.769,23.769,0,0,1-.929-3.151m62.537,171.925a14.437,14.437,0,0,1-1.268,2.659,14.5,14.5,0,0,0-1.477,3.25c-.208.718-1.335,2.568-6.543,6.88-.139.115-.242.2-.3.25a1.994,1.994,0,0,1-1.858.61.516.516,0,0,1-.353-.446c-.081-.608.468-1.723,2.252-3.025,1.465-1.07,2.718-3.28,3.645-5.087a.723.723,0,0,0-1.076-.909c-1.372,1.025-2.357,1.718-2.777,1.949-1.315.726-2.24.515-2.37.312-.09-.139.1-.845,1.514-1.884a26.2,26.2,0,0,0,4.354-3.923l.114.3a.724.724,0,0,0,1.387-.125c.214-1.148.416-2.376.471-2.856a39.677,39.677,0,0,0,.04-3.987.723.723,0,0,0-.5-.673,32.53,32.53,0,0,1-4.315-1.775c-.742-1.386-2.314-8.1-1.761-15.55a.724.724,0,0,0-.038-.29,5.486,5.486,0,0,1-.295-1.831,127.987,127.987,0,0,0-3.14-27.406c-1.333-6.457-2.386-11.557-1.234-18.247l.017-.087a.735.735,0,0,0,0-.268l-.025-.12c-.038-.188-.077-.375-.107-.57a106.406,106.406,0,0,1-1.1-17.223,113.763,113.763,0,0,0-.7-14.36c1.937-2.8,2.528-6.08,3.058-9.055a23.623,23.623,0,0,1,1.513-5.779.723.723,0,0,0-1.308-.616A24.6,24.6,0,0,0,85,96.233c-1.288,7.217-2.619,14.679-20.721,14.679a.723.723,0,0,0,0,1.446c8.932,0,14.064-1.884,17.13-4.606a191.561,191.561,0,0,0-3.473,37.61.69.69,0,0,0,.02.171c2.331,9.612,4.682,25.673,4.332,38.226,0,.019,0,.038,0,.057.147,2.87.361,5.939.589,9.189.949,13.557,2.13,30.43-.417,50.373l-.187,1.441c-.548,4.195-1.466,11.215-2.087,20.87a.7.7,0,0,0,0,.113l.02.221c.023.244.046.488.066.742.181,2.2.167,5.816.155,8.723-.008,1.957-.014,3.648.034,4.618.295,5.863.214,8.8.119,12.2-.052,1.88-.111,4.01-.109,6.865,0,4.48-.66,13-1.245,20.524-.49,6.31-.914,11.759-.878,13.865.03,1.761.035,3.285.04,4.68.009,2.631.016,4.9.195,7.424a.736.736,0,0,0,.056.233,15.088,15.088,0,0,1,.882,2.9A27.085,27.085,0,0,0,82.5,356.15c1.644,3.1,2.942,5.548,1.829,8.286a.728.728,0,0,0-.049.193c-.145,1.324-3.918,1.307-6.668,1.3-.9,0-1.832-.008-2.673.024-.752.029-1.492.072-2.205.113-3.865.226-6.239.281-6.386-1.33-.264-2.918.164-11.617.865-17.563a8.1,8.1,0,0,1,.457-1.9.72.72,0,0,0,.044-.195c1.015-12.115-1.22-24-2.421-30.381-.252-1.341-.47-2.5-.6-3.363-.126-.82-.311-1.8-.525-2.944a112.559,112.559,0,0,1-1.845-32.321l.028-.287a.714.714,0,0,0,0-.151,24.856,24.856,0,0,0-1.192-4.724,47.95,47.95,0,0,1-2.6-14.132c-.119-3.02-.709-9.64-1.454-18.021-1.194-13.426-2.679-30.136-3.135-41.985a.724.724,0,0,0-.448-.641,13.193,13.193,0,0,1-1.968-1,.724.724,0,0,0-.765,0,13.143,13.143,0,0,1-1.966,1,.723.723,0,0,0-.448.641c-.456,11.849-1.941,28.559-3.135,41.986-.745,8.381-1.334,15-1.454,18.021A47.984,47.984,0,0,1,41.2,270.9,24.88,24.88,0,0,0,40,275.626a.719.719,0,0,0,0,.151l.029.287a112.546,112.546,0,0,1-1.846,32.321c-.213,1.14-.4,2.124-.524,2.944-.133.864-.351,2.022-.6,3.363-1.2,6.384-3.435,18.267-2.421,30.381a.7.7,0,0,0,.044.2,8.065,8.065,0,0,1,.457,1.9c.7,5.945,1.129,14.644.865,17.563-.146,1.611-2.521,1.555-6.384,1.33-.714-.041-1.454-.085-2.207-.113-.565-.021-1.171-.027-1.78-.027l-.894,0c-2.753.01-6.522.028-6.667-1.3a.724.724,0,0,0-.049-.193c-1.113-2.739.185-5.186,1.829-8.286a27.085,27.085,0,0,0,2.974-7.361,15.034,15.034,0,0,1,.882-2.9.727.727,0,0,0,.057-.233c.177-2.518.185-4.787.194-7.414,0-1.4.01-2.924.04-4.69.036-2.106-.388-7.555-.878-13.863-.585-7.521-1.249-16.046-1.246-20.527,0-2.855-.057-4.987-.109-6.867-.094-3.4-.175-6.333.12-12.194.048-.969.041-2.657.034-4.612-.012-2.91-.026-6.531.155-8.729.021-.248.043-.487.066-.726l.022-.237a.77.77,0,0,0,0-.113c-.621-9.658-1.539-16.68-2.087-20.875l-.186-1.436c-2.547-19.943-1.366-36.816-.417-50.373.228-3.249.442-6.318.589-9.187,0-.019,0-.038,0-.057-.35-12.554,2-28.616,4.333-38.228a.715.715,0,0,0,.02-.171,191.543,191.543,0,0,0-3.474-37.61c3.067,2.722,8.2,4.606,17.131,4.606a.723.723,0,0,0,0-1.446c-18.1,0-19.434-7.462-20.721-14.679a24.6,24.6,0,0,0-1.629-6.141.723.723,0,0,0-1.308.616,23.623,23.623,0,0,1,1.513,5.779c.531,2.974,1.121,6.252,3.058,9.055a113.807,113.807,0,0,0-.7,14.358,106.381,106.381,0,0,1-1.1,17.224c-.03.2-.07.389-.109.58l-.023.11a.735.735,0,0,0,0,.268l.025.124c1.143,6.652.091,11.752-1.243,18.209a128.057,128.057,0,0,0-3.14,27.417,5.423,5.423,0,0,1-.295,1.82.723.723,0,0,0-.037.29c.553,7.453-1.019,14.164-1.761,15.55a32.514,32.514,0,0,1-4.315,1.775.723.723,0,0,0-.5.673,39.521,39.521,0,0,0,.041,3.987c.055.477.257,1.7.471,2.856a.723.723,0,0,0,1.387.125l.115-.3a26.193,26.193,0,0,0,4.353,3.923c1.41,1.039,1.6,1.744,1.514,1.884-.13.2-1.056.414-2.37-.312-.419-.231-1.405-.924-2.777-1.949a.723.723,0,0,0-1.076.909c.928,1.807,2.182,4.018,3.645,5.087,1.785,1.3,2.334,2.417,2.253,3.025a.516.516,0,0,1-.354.446,1.993,1.993,0,0,1-1.857-.61l-.3-.25c-5.208-4.312-6.335-6.162-6.543-6.88A14.475,14.475,0,0,0,2.8,212.63a14.47,14.47,0,0,1-1.268-2.659,36.9,36.9,0,0,1,.293-7.1.844.844,0,0,0,0-.095,2.8,2.8,0,0,1,.023-.456c.66-4.829,2.031-13.744,2.589-17.352a.716.716,0,0,0,0-.248,10.4,10.4,0,0,1-.165-1.225c-.129-1.773-.4-4.221-.705-7.056C2.4,165.793.455,147.977,2.94,137.025a.669.669,0,0,0,.016-.105C4.524,116.4,4.876,105.626,5.108,98.5c.265-8.113.354-10.846,1.947-17.2,3.15-12.56,11.2-15.351,18.906-16.18a.717.717,0,0,0,.36.194c4.211.877,7.962,1.348,10.975,1.726,5.447.684,9.046,1.136,10.381,3.188a.723.723,0,0,0,1.213-.788c-1.7-2.616-5.564-3.1-11.413-3.835-2.6-.326-5.488-.692-8.757-1.3,3.174-1.316,6.944-2.815,9.707-3.728a6.9,6.9,0,0,0,1.891-3.543c.139-1.466.087-7.577.043-11.089l0-.29.183.225c1.5,1.839,3.221,3.624,4.115,4.526a8.2,8.2,0,0,0,6.608,2.7h.1a8.182,8.182,0,0,0,6.6-2.7c.877-.883,2.569-2.637,4.059-4.456l.183-.224,0,.289c-.043,3.5-.094,9.582.042,11.02a7.3,7.3,0,0,0,2.168,3.86l.049-.027-.024.027c2.728.907,6.222,2.211,9.187,3.414-3.262.6-6.148.968-8.741,1.294-5.849.734-9.712,1.219-11.413,3.835a.723.723,0,1,0,1.212.788c1.335-2.053,4.933-2.5,10.381-3.188,3.013-.378,6.763-.849,10.975-1.726a.72.72,0,0,0,.36-.194c7.7.828,15.755,3.619,18.906,16.18,1.594,6.352,1.682,9.085,1.947,17.2.232,7.128.584,17.9,2.153,38.422a.651.651,0,0,0,.016.1c2.484,10.953.539,28.769-.622,39.414-.309,2.834-.576,5.282-.705,7.056a10.39,10.39,0,0,1-.164,1.225.728.728,0,0,0,0,.248c.558,3.607,1.929,12.52,2.59,17.353a2.772,2.772,0,0,1,.023.458.707.707,0,0,0,0,.093,36.906,36.906,0,0,1,.292,7.1" transform="translate(0 -0.099)"/>
        <path id="パス_887" data-name="パス 887" d="M11.235,411.223c-.478-.875-.24-5.88-.481-6.824-.377-1.482,1.755-3.154,2.979-4.517,1.175-2.383-.192-7.593-.192-7.593L5.084,399.4c.1,2-.119,4.372.288,6.055.569,2.349,1.013,5.892,1.887,7.675,1.079,2.2,4.009,4.117,4.552,4.724,1.478,1.653,4.084.731,3.556-1.441-.435-1.792-3.881-4.73-4.133-5.19" transform="translate(-2.512 -193.818)" fill="#fff"/>
        <path id="パス_888" data-name="パス 888" d="M11.874,410.9c-.308-.31-.657-.661-.709-.73a20.487,20.487,0,0,1-.258-3.847,16.889,16.889,0,0,0-.159-2.813c-.2-.781.994-1.986,1.951-2.953.308-.311.606-.614.866-.9a.747.747,0,0,0,.111-.163c1.279-2.6-.083-7.873-.142-8.1a.723.723,0,1,0-1.4.367c.355,1.354,1.085,5.207.283,7-.228.249-.485.508-.748.774-1.277,1.291-2.724,2.754-2.324,4.328a21.1,21.1,0,0,1,.114,2.481c.041,2.388.09,3.884.432,4.511a6.162,6.162,0,0,0,.955,1.06c.995,1,2.845,2.863,3.11,3.955a1.019,1.019,0,0,1-.46,1.254,1.555,1.555,0,0,1-1.855-.465,9.345,9.345,0,0,0-.92-.8A13.381,13.381,0,0,1,7.2,412.106a24.054,24.054,0,0,1-1.308-5c-.176-.907-.343-1.764-.526-2.522a17.407,17.407,0,0,1-.239-3.77c0-.716.006-1.457-.029-2.152a.712.712,0,0,0-.758-.686.723.723,0,0,0-.686.758c.033.656.03,1.377.028,2.074a18.255,18.255,0,0,0,.279,4.115c.176.726.339,1.567.512,2.457A24.325,24.325,0,0,0,5.9,412.742a14.5,14.5,0,0,0,3.907,4.242,9.894,9.894,0,0,1,.755.646,3.176,3.176,0,0,0,2.344,1.089,2.7,2.7,0,0,0,1.261-.308,2.44,2.44,0,0,0,1.192-2.875c-.332-1.369-1.906-3.039-3.49-4.633" transform="translate(-1.805 -193.112)"/>
        <path id="パス_889" data-name="パス 889" d="M20.421,362.493,16.1,381.22a63.371,63.371,0,0,1,1.922,7.3c.913,3.9,1.92,4.787,4.325,4.421s1.043-3.742.865-5.383a49.517,49.517,0,0,1,.192-8.747c1.905-8.386-2.9-11.306-2.987-16.324" transform="translate(-7.956 -179.097)" fill="#fff"/>
        <path id="パス_890" data-name="パス 890" d="M21.9,366.742a12.511,12.511,0,0,1-1.465-4.969.723.723,0,0,0-.722-.711H19.7a.723.723,0,0,0-.71.736,13.772,13.772,0,0,0,1.591,5.534C21.83,370.12,23.12,373,22,377.95a49.593,49.593,0,0,0-.206,8.985c.04.376.133.812.23,1.272.217,1.025.514,2.428.113,3.006a.793.793,0,0,1-.6.311c-1.747.266-2.611-.02-3.512-3.871-.048-.2-.112-.49-.19-.834a47.96,47.96,0,0,0-1.777-6.6.723.723,0,1,0-1.319.592,52.159,52.159,0,0,1,1.686,6.327c.078.349.144.64.192.846.754,3.222,1.688,5.049,4.184,5.049a6.393,6.393,0,0,0,.954-.077,2.226,2.226,0,0,0,1.57-.918c.755-1.091.4-2.775.113-4.129-.09-.425-.175-.825-.207-1.129a49.266,49.266,0,0,1,.179-8.508c1.231-5.419-.223-8.664-1.505-11.528" transform="translate(-7.25 -178.39)"/>
        <path id="パス_891" data-name="パス 891" d="M178.653,392.288s-1.368,5.21-.192,7.594c1.225,1.363,3.357,3.035,2.979,4.517-.24.944,0,5.949-.481,6.824-.251.46-3.7,3.4-4.133,5.19-.527,2.172,2.078,3.094,3.557,1.442.542-.607,3.474-2.525,4.552-4.725.874-1.782,1.318-5.326,1.887-7.674.407-1.683.188-4.057.288-6.056Z" transform="translate(-87.33 -193.818)" fill="#fff"/>
        <path id="パス_892" data-name="パス 892" d="M186.441,397.972a.72.72,0,0,0-.758.686c-.034.7-.032,1.436-.029,2.152a17.371,17.371,0,0,1-.239,3.77c-.184.758-.351,1.615-.526,2.522a24.129,24.129,0,0,1-1.308,5.005,13.4,13.4,0,0,1-3.522,3.756,9.3,9.3,0,0,0-.921.8,1.557,1.557,0,0,1-1.855.465,1.019,1.019,0,0,1-.46-1.254c.266-1.092,2.116-2.954,3.11-3.955a6.15,6.15,0,0,0,.955-1.06c.342-.627.392-2.123.432-4.511a21.141,21.141,0,0,1,.114-2.481c.4-1.573-1.047-3.036-2.324-4.327-.264-.266-.52-.525-.748-.774-.8-1.793-.071-5.649.284-7a.723.723,0,0,0-1.4-.367c-.058.224-1.421,5.5-.141,8.1a.747.747,0,0,0,.111.164c.26.288.558.591.866.9.958.968,2.15,2.172,1.951,2.953a16.886,16.886,0,0,0-.159,2.813,22.1,22.1,0,0,1-.238,3.814c-.072.1-.421.453-.729.763-1.584,1.593-3.157,3.263-3.489,4.632a2.44,2.44,0,0,0,1.192,2.875,2.7,2.7,0,0,0,1.262.308,3.174,3.174,0,0,0,2.344-1.089c.1-.115.42-.373.755-.646a14.508,14.508,0,0,0,3.907-4.242,24.284,24.284,0,0,0,1.429-5.366c.173-.89.336-1.731.512-2.457a18.312,18.312,0,0,0,.28-4.115c0-.7-.006-1.418.027-2.074a.723.723,0,0,0-.686-.758" transform="translate(-86.624 -193.112)"/>
        <path id="パス_893" data-name="パス 893" d="M171.329,378.817a49.564,49.564,0,0,1,.192,8.747c-.178,1.64-1.54,5.017.865,5.382s3.412-.524,4.325-4.421a63.411,63.411,0,0,1,1.922-7.3l-4.318-18.726c-.087,5.018-4.892,7.937-2.987,16.324" transform="translate(-84.428 -179.097)" fill="#fff"/>
        <path id="パス_894" data-name="パス 894" d="M178.222,379.853a.723.723,0,0,0-.956.364,51.161,51.161,0,0,0-1.78,6.615c-.076.338-.14.62-.186.821-.9,3.852-1.766,4.137-3.513,3.871a.794.794,0,0,1-.6-.312c-.4-.578-.1-1.981.113-3.006.1-.461.189-.9.23-1.272a49.676,49.676,0,0,0-.206-8.984c-1.124-4.948.166-7.83,1.414-10.617a13.77,13.77,0,0,0,1.591-5.534.724.724,0,0,0-.711-.736h-.013a.723.723,0,0,0-.722.71,12.5,12.5,0,0,1-1.464,4.969c-1.282,2.863-2.736,6.108-1.5,11.528a49.4,49.4,0,0,1,.179,8.508c-.033.3-.118.7-.208,1.128-.286,1.353-.643,3.038.113,4.129a2.224,2.224,0,0,0,1.57.918,6.318,6.318,0,0,0,.953.078c2.5,0,3.43-1.828,4.185-5.049.048-.2.112-.49.189-.833a52.4,52.4,0,0,1,1.688-6.34.723.723,0,0,0-.364-.956" transform="translate(-83.72 -178.39)"/>
        <path id="パス_895" data-name="パス 895" d="M346.923,382.053c4.4,0,7.958-1.021,7.958-9.415H338.965c0,8.394,3.563,9.415,7.958,9.415" transform="translate(-167.473 -184.11)" fill="#fff"/>
        <path id="パス_896" data-name="パス 896" d="M354.175,371.209a.723.723,0,0,0-.723.723c0,8.038-3.277,8.692-7.235,8.692s-7.236-.654-7.236-8.692a.723.723,0,0,0-1.446,0c0,8.414,3.471,10.138,8.682,10.138s8.681-1.724,8.681-10.138a.723.723,0,0,0-.723-.723" transform="translate(-166.767 -183.403)"/>
        <path id="パス_897" data-name="パス 897" d="M320.68,38.016c.128-.032.513-.129,1.156-1.671s1.317-.578,2.377-2.513,1.285-3.076.289-6.127-2.289-.225-2.289-.225c.249-1.638,0-.835,0-6.457s-.249-19.016-16.254-19.016-16.6,13.427-16.6,18.984.334,6.489.334,6.489c-2.589-3.148-2.9,2.538-2.9,2.538-.242,2.232-.1,2.418,1.863,4.754s2.795,3.427,2.795,3.427c.128,4.133,3.886,7.68,3.886,7.68l-.128,10.191-4.3,4.69s-5.473,1.916-9.264,3.514c-7.225.64-16.988,2.814-20.5,16.819-3,11.968-.733,11.442-4.119,55.741-3.16,13.93.688,38.107,1.311,46.682a11.117,11.117,0,0,0,.176,1.31c-.581,3.75-1.933,12.548-2.592,17.365-.182,1.331.336,1.991,1.217,2.234a21.764,21.764,0,0,0-.427,4.865c.578,2.347,1.765,3.682,2.256,6.082s5.871,7.443,6.444,8.021c2.188,2.2,4.91.527,2.513-2.537,2.011.952,3.99-.427,1.717-3.457a17.875,17.875,0,0,1-2.69-4.606c.532.944,1.242,1.079,2.663.863,2.406-.365.87-5.277.692-6.918a31.441,31.441,0,0,1-.065-6.95c1.641-7.22-1.187-11.29-2.062-15.484.012-.166.02-.334.019-.506.227-25.456,6.7-32.228,4.373-45.744-.007-.043-.017-.082-.025-.125.049-.24.1-.479.138-.726,2.023-13.372.32-19.456,1.832-31.8a186.489,186.489,0,0,1,3.966,39.926c-2.557,10.538-4.686,26.5-4.353,38.418-.755,14.809-3.335,34.879-.166,59.689.5,3.9,1.572,11.422,2.27,22.266-.03.321-.061.637-.088.97-.3,3.665-.069,10.94-.191,13.364-.462,9.189-.006,11.172-.011,19.1-.006,8.215,2.2,29.786,2.124,34.378-.094,5.481.053,8.665-.291,12.826-.131.437-.255.884-.365,1.355-2.946,12.733-6.826,14.777-5.268,18.482.273,2.485,6.042,2.524,10.032,2.676,4.811.184,9.081-.208,9.339-3.039.262-2.884-.573-6.881-1.3-19.547a3.581,3.581,0,0,0-.007-.559c-1.4-14.79,2.165-29.151,2.957-34.3s3.959-17.026,2.376-35.437c-.009-.1-.02-.2-.029-.3.449-4.091,3.368-8.259,3.791-18.906.309-7.789,3.846-40.7,4.589-60.007a13.877,13.877,0,0,0,2.074-1.057h0a13.912,13.912,0,0,0,2.075,1.058c.742,19.309,4.279,52.217,4.588,60.007.423,10.647,3.342,14.815,3.791,18.906-.01.1-.021.2-.029.3-1.583,18.411,1.584,30.29,2.376,35.437s4.353,19.509,2.957,34.3a3.579,3.579,0,0,0-.007.559c-.724,12.665-1.559,16.662-1.3,19.547.257,2.831,4.528,3.223,9.338,3.039,3.99-.153,9.759-.191,10.032-2.676,1.558-3.7-2.321-5.749-5.268-18.482-.109-.471-.233-.919-.365-1.356-.344-4.16-.2-7.344-.291-12.824-.078-4.593,2.129-26.164,2.124-34.378-.005-7.925.451-9.908-.011-19.1-.122-2.423.111-9.7-.191-13.364-.027-.332-.058-.649-.088-.97.7-10.844,1.772-18.368,2.27-22.265,3.169-24.811.588-44.881-.167-59.69.332-11.92-1.8-27.88-4.353-38.417a186.5,186.5,0,0,1,3.966-39.926c1.513,12.342-.191,18.426,1.833,31.8.037.247.089.486.138.726-.008.043-.017.082-.024.125-2.324,13.516,4.145,20.288,4.372,45.744,0,.173.007.341.019.507-.875,4.194-3.7,8.264-2.062,15.484a31.5,31.5,0,0,1-.065,6.95c-.178,1.64-1.714,6.552.692,6.918,1.421.216,2.13.081,2.663-.862a17.871,17.871,0,0,1-2.689,4.605c-2.273,3.03-.294,4.409,1.717,3.457-2.4,3.064.325,4.74,2.513,2.537.574-.578,5.953-5.62,6.445-8.021s1.678-3.736,2.257-6.082a21.766,21.766,0,0,0-.427-4.865c.881-.243,1.4-.9,1.217-2.234-.659-4.818-2.011-13.616-2.591-17.365a11.134,11.134,0,0,0,.176-1.31c.624-8.576,4.471-32.752,1.311-46.682-3.386-44.3-1.117-43.773-4.119-55.741-3.513-14-13.275-16.179-20.5-16.819-3.79-1.6-8.8-3.514-8.8-3.514l-4.658-4.69-.1-10.2c4.642-4.641,3.831-7.822,3.959-7.854M266.225,211.635c-.75-1.024-1-4.341-1.065-7.237.323,1.957.566,4.286.758,5.106a16.8,16.8,0,0,0,.9,3.055,8.453,8.453,0,0,0-.6-.924m79.468,0a8.493,8.493,0,0,0-.6.923,16.825,16.825,0,0,0,.9-3.055c.164-.7.4-1.989.688-3.253-.124,2.333-.4,4.575-1,5.384" transform="translate(-126.377 -0.991)" fill="#fff"/>
        <path id="パス_898" data-name="パス 898" d="M263.808,392.81a27.353,27.353,0,0,1-2.042-3.793,15.637,15.637,0,0,1-.344-3.662s4.354-3.408,5.8-12.973l-8.551-8.913c-.514,3.086-3.84,16.087-1.882,25.932.344,1.725,2.275,3.476,3.138,4.742,1.064,1.562,3.938,2.933,4.471,3.365,1.453,1.176,3.995.536,3.469-1-.433-1.271-3.815-3.366-4.063-3.693" transform="translate(-126.571 -179.579)" fill="#fff"/>
        <path id="パス_899" data-name="パス 899" d="M264.342,392.159c-.279-.2-.593-.433-.69-.52a27.634,27.634,0,0,1-1.918-3.573,13.013,13.013,0,0,1-.3-3.091c1.02-.947,4.515-4.737,5.8-13.193a.723.723,0,0,0-1.43-.217c-1.381,9.114-5.5,12.481-5.535,12.512a.722.722,0,0,0-.277.561,15.494,15.494,0,0,0,.386,3.914,27.7,27.7,0,0,0,2.147,3.986,5.044,5.044,0,0,0,.969.787c.823.6,2.748,2.007,2.986,2.7a.32.32,0,0,1-.142.432,2.034,2.034,0,0,1-2.188-.223,9.058,9.058,0,0,0-.909-.577,11.835,11.835,0,0,1-3.419-2.633c-.277-.406-.642-.842-1.026-1.3a8.579,8.579,0,0,1-2-3.174c-1.645-8.271.562-19.091,1.5-23.711.171-.838.306-1.5.383-1.961a.723.723,0,0,0-1.427-.238c-.073.436-.205,1.086-.373,1.91-1.041,5.1-3.206,15.726-1.5,24.283a9.478,9.478,0,0,0,2.308,3.82c.362.433.7.841.941,1.188a12.805,12.805,0,0,0,3.878,3.063c.314.186.637.378.735.457a3.631,3.631,0,0,0,2.248.765,2.941,2.941,0,0,0,1.678-.48,1.745,1.745,0,0,0,.683-2.085c-.355-1.042-1.859-2.2-3.5-3.4m-.671-.495,0,0,0,0" transform="translate(-125.86 -178.872)"/>
        <path id="パス_900" data-name="パス 900" d="M431.2,372.38c1.45,9.565,5.8,12.973,5.8,12.973a15.642,15.642,0,0,1-.344,3.663,27.407,27.407,0,0,1-2.042,3.793c-.248.327-3.63,2.423-4.064,3.693-.525,1.54,2.017,2.181,3.47,1,.533-.432,3.407-1.8,4.471-3.365.863-1.266,2.794-3.016,3.137-4.742,1.959-9.846-1.368-22.846-1.881-25.932Z" transform="translate(-212.689 -179.578)" fill="#fff"/>
        <path id="パス_901" data-name="パス 901" d="M439.758,362.643a.723.723,0,0,0-1.427.237c.077.462.212,1.124.383,1.961.942,4.621,3.149,15.441,1.5,23.711a8.583,8.583,0,0,1-2,3.175c-.385.46-.749.9-1.026,1.3a11.845,11.845,0,0,1-3.42,2.633,9.028,9.028,0,0,0-.909.577,2.033,2.033,0,0,1-2.188.223.32.32,0,0,1-.142-.432c.238-.7,2.163-2.1,2.986-2.7a5.072,5.072,0,0,0,.969-.787,27.734,27.734,0,0,0,2.147-3.987,15.487,15.487,0,0,0,.386-3.914.728.728,0,0,0-.275-.559c-.041-.033-4.156-3.4-5.537-12.514a.723.723,0,0,0-1.43.217c1.281,8.456,4.776,12.246,5.8,13.193a13.017,13.017,0,0,1-.3,3.091,27.631,27.631,0,0,1-1.918,3.572c-.1.087-.41.316-.689.52-1.643,1.2-3.147,2.362-3.5,3.4a1.745,1.745,0,0,0,.683,2.085,2.941,2.941,0,0,0,1.678.48,3.63,3.63,0,0,0,2.248-.765c.1-.08.422-.271.736-.457a12.806,12.806,0,0,0,3.878-3.063c.237-.347.578-.755.94-1.187a9.478,9.478,0,0,0,2.309-3.821c1.7-8.557-.463-19.178-1.5-24.283-.168-.824-.3-1.474-.373-1.91m-6.421,29.022,0,0,0,0" transform="translate(-211.983 -178.872)"/>
        <path id="パス_902" data-name="パス 902" d="M306.234,679.161a.723.723,0,0,0-.606.824,47.867,47.867,0,0,1,.388,10.151.723.723,0,0,0,.659.781c.021,0,.042,0,.062,0a.723.723,0,0,0,.719-.662,48.691,48.691,0,0,0-.4-10.492.723.723,0,0,0-.824-.606" transform="translate(-150.998 -335.549)"/>
        <path id="パス_903" data-name="パス 903" d="M401.763,679.161a.723.723,0,0,0-.825.606,48.689,48.689,0,0,0-.4,10.492.724.724,0,0,0,.72.662l.062,0a.723.723,0,0,0,.66-.782,47.856,47.856,0,0,1,.387-10.151.722.722,0,0,0-.6-.823" transform="translate(-197.834 -335.549)"/>
        <path id="パス_904" data-name="パス 904" d="M323.682,532.074a.721.721,0,0,0-.837.587c-.084.481-.819,4.745-.587,6.327a.722.722,0,0,0,.714.619.711.711,0,0,0,.106-.008.723.723,0,0,0,.611-.82,31.05,31.05,0,0,1,.58-5.868.722.722,0,0,0-.587-.837" transform="translate(-159.196 -262.877)"/>
        <path id="パス_905" data-name="パス 905" d="M306.765,527.8a.723.723,0,0,0-.461.913,31.038,31.038,0,0,1,1.416,5.724.723.723,0,0,0,.721.725h0a.722.722,0,0,0,.723-.722c0-1.6-1.335-5.714-1.487-6.178a.722.722,0,0,0-.913-.461" transform="translate(-151.318 -260.752)"/>
        <path id="パス_906" data-name="パス 906" d="M384.209,532.074a.723.723,0,0,0-.587.837,31.061,31.061,0,0,1,.581,5.868.722.722,0,0,0,.61.82.711.711,0,0,0,.106.008.722.722,0,0,0,.714-.618c.232-1.582-.5-5.846-.587-6.327a.723.723,0,0,0-.837-.588" transform="translate(-189.531 -262.876)"/>
        <path id="パス_907" data-name="パス 907" d="M400.315,527.8a.722.722,0,0,0-.913.461c-.152.464-1.49,4.579-1.487,6.178a.723.723,0,0,0,.724.722h0a.722.722,0,0,0,.721-.724,31.042,31.042,0,0,1,1.416-5.724.723.723,0,0,0-.46-.913" transform="translate(-196.598 -260.752)"/>
        <path id="パス_908" data-name="パス 908" d="M354.249,198.565a.723.723,0,0,0-.723.723v40.155a.723.723,0,1,0,1.446,0V199.288a.723.723,0,0,0-.723-.723" transform="translate(-174.667 -98.105)"/>
        <path id="パス_909" data-name="パス 909" d="M320.938,144.819a.723.723,0,0,0-.416.935c1.659,4.316,1.531,5.781,1.149,10.13-.112,1.289-.254,2.893-.372,4.877l-.091,1.552c-.341,5.885-.512,8.838-2.249,11.059-1.776,2.27-5.315,4.028-12.364,7.53l-1.951.97a.723.723,0,1,0,.645,1.294l1.949-.969c14.552-7.229,14.7-7.414,15.414-19.8l.091-1.549c.117-1.964.256-3.557.369-4.837.392-4.473.539-6.148-1.24-10.775a.723.723,0,0,0-.934-.415" transform="translate(-150.318 -71.527)"/>
        <path id="パス_910" data-name="パス 910" d="M386.6,181.87l-1.949-.969c-7.051-3.5-10.589-5.261-12.365-7.531-1.737-2.221-1.909-5.175-2.249-11.059l-.091-1.551c-.118-1.984-.26-3.588-.372-4.876-.382-4.35-.51-5.815,1.149-10.13a.723.723,0,0,0-1.35-.52c-1.78,4.628-1.633,6.3-1.24,10.777.113,1.28.252,2.872.37,4.835l.09,1.549c.717,12.387.861,12.573,15.415,19.8l1.948.969a.723.723,0,1,0,.645-1.295" transform="translate(-181.758 -71.527)"/>
        <path id="パス_911" data-name="パス 911" d="M353.364,322.5c-8.746,3.237-20.467,4.222-30.879,4.237-10.429-.01-22.181-.993-30.947-4.237a92.843,92.843,0,0,0-1,18.2c-.242,6.177-1.958,18.451-1.166,21.44,8.587,3.944,25.864,3.944,30.686.123a18.651,18.651,0,0,0,.462-4.031,13.314,13.314,0,0,0,1.726.214v.012c.07,0,.141,0,.212-.006s.13.005.194.005v-.011a13.391,13.391,0,0,0,1.726-.214,18.663,18.663,0,0,0,.463,4.031c4.822,3.82,22.1,3.82,30.686-.123.792-2.989-.924-15.263-1.167-21.44a92.794,92.794,0,0,0-1-18.2" transform="translate(-142.869 -159.337)" fill="#747a7f"/>
        <path id="パス_912" data-name="パス 912" d="M354.378,340a94.516,94.516,0,0,0-1.008-18.325.723.723,0,0,0-.963-.556c-9.3,3.442-21.79,4.179-30.628,4.192-8.86-.009-21.377-.744-30.7-4.192a.724.724,0,0,0-.964.556A94.509,94.509,0,0,0,289.11,340c-.087,2.174-.353,5.072-.635,8.14-.54,5.878-1.05,11.431-.507,13.481a.724.724,0,0,0,.4.472c8.754,4.02,26.381,4.038,31.437.033a.723.723,0,0,0,.22-.293,13.841,13.841,0,0,0,.486-3.462c.257.034.554.066.864.085a1.3,1.3,0,0,0,.345.017l.017,0h.053a1.253,1.253,0,0,0,.322-.015c.312-.019.613-.052.872-.086a13.845,13.845,0,0,0,.485,3.462.726.726,0,0,0,.221.294c2.519,2,8.162,2.993,14.273,2.993,6.15,0,12.773-1.01,17.164-3.026a.725.725,0,0,0,.4-.472c.543-2.05.033-7.6-.507-13.48-.282-3.068-.548-5.966-.635-8.14m-.188,20.925c-8.243,3.589-24.635,3.7-29.442.191a19.822,19.822,0,0,1-.352-3.6.723.723,0,0,0-.865-.694,12.723,12.723,0,0,1-1.62.2.624.624,0,0,0-.071.007l-.107,0-.077,0a.656.656,0,0,0-.077-.008,12.723,12.723,0,0,1-1.621-.2.723.723,0,0,0-.865.694,19.8,19.8,0,0,1-.352,3.6c-4.807,3.509-21.2,3.4-29.442-.191-.351-2.112.162-7.7.617-12.653.284-3.1.554-6.033.641-8.248,0-.022,0-.044,0-.066a93.244,93.244,0,0,1,.856-17.184c9.417,3.267,21.646,3.975,30.366,3.984,8.7-.012,20.9-.723,30.3-3.983a93.287,93.287,0,0,1,.856,17.184c0,.022,0,.044,0,.066.087,2.215.356,5.146.641,8.248.456,4.958.968,10.541.617,12.653m.631.51h0Z" transform="translate(-142.162 -158.631)"/>
        <path id="パス_913" data-name="パス 913" d="M325.407,380.766c-7.895,3.735-19.206,2.2-19.683,2.135-4.089-.574-6.5-2.157-7.825-5.133a.723.723,0,1,0-1.321.588c1.526,3.436,4.369,5.335,8.945,5.977a48.156,48.156,0,0,0,6.33.4c4.163,0,9.631-.509,14.172-2.657a.723.723,0,0,0-.619-1.307" transform="translate(-146.499 -186.432)"/>
        <path id="パス_914" data-name="パス 914" d="M383.742,377.4a.723.723,0,0,0-.954.367c-.893,2.011-2.448,3.974-7.719,4.714-4.655.653-13.415,1.3-19.789-1.717a.723.723,0,1,0-.618,1.307c3.919,1.854,8.643,2.4,12.856,2.4a56.659,56.659,0,0,0,7.752-.56c4.762-.668,7.406-2.33,8.841-5.558a.723.723,0,0,0-.367-.955" transform="translate(-175.023 -186.432)"/>
        <path id="パス_915" data-name="パス 915" d="M354.249,347.463a.723.723,0,0,0-.723.723v18.07a.723.723,0,1,0,1.446,0v-18.07a.723.723,0,0,0-.723-.723" transform="translate(-174.667 -171.671)"/>
        <path id="パス_916" data-name="パス 916" d="M330.17,309.5a21.594,21.594,0,0,1-5.844-8.036.723.723,0,1,0-1.324.582,22.849,22.849,0,0,0,6.182,8.512,13.282,13.282,0,0,1,3.608,4.571.723.723,0,1,0,1.322-.586,14.635,14.635,0,0,0-3.944-5.043" transform="translate(-159.556 -148.732)"/>
        <path id="パス_917" data-name="パス 917" d="M375.206,300.991a.722.722,0,0,0-.954.368,21.832,21.832,0,0,1-5.877,8.059,14.786,14.786,0,0,0-3.964,5.053.723.723,0,1,0,1.32.59,13.436,13.436,0,0,1,3.628-4.585,23.082,23.082,0,0,0,6.215-8.532.723.723,0,0,0-.368-.954" transform="translate(-180.014 -148.68)"/>
        <path id="パス_918" data-name="パス 918" d="M353.432,183.844a11.73,11.73,0,0,0,.163-1.269c.127-1.746.393-4.181.7-7,1.246-11.413,3.128-28.651.607-39.842-1.563-20.46-1.913-31.2-2.145-38.308-.261-8-.359-11-1.99-17.5-3.506-13.977-13.056-16.631-21.025-17.353-1.9-.8-4.26-1.67-6.538-2.471a.744.744,0,0,0-.126-.06c-2.776-.987-5.3-4.4-5.88-5.23V45a18.974,18.974,0,0,0,2.9-4.471c2.206-5.757,2.73-16.094,2.662-19.008-.012-.506-.01-1.053-.007-1.631.014-3.333.032-7.9-2.653-12.09a.521.521,0,0,0-.135-.147,13.57,13.57,0,0,0-4.111-4.315A18.188,18.188,0,0,0,305.617,0c-.11,0-.219,0-.307,0,0,0-.322,0-.43,0a18.125,18.125,0,0,0-10.2,3.31,13.59,13.59,0,0,0-4.132,4.336.769.769,0,0,0-.133.154c-2.8,4.364-2.726,9.071-2.674,12.509l0,.109c.005.391.01.765.01,1.122,0,4.166.557,13.5,2.662,18.99a19.106,19.106,0,0,0,2.934,4.513v9.767c-.577.822-3.063,4.185-5.812,5.2-2.355.826-4.818,1.733-6.789,2.559-7.969.722-17.519,3.376-21.026,17.353-1.631,6.5-1.728,9.5-1.989,17.5-.232,7.109-.582,17.848-2.145,38.308-2.521,11.19-.64,28.427.606,39.839.308,2.821.574,5.256.7,7a11.793,11.793,0,0,0,.163,1.268c-.7,4.548-1.953,12.714-2.575,17.256a2.472,2.472,0,0,0,1.133,2.784,17.053,17.053,0,0,0-.329,4.586,15.788,15.788,0,0,0,1.144,3.016,13.1,13.1,0,0,1,1.106,3.038c.33,1.613,2.416,4.272,6.377,8.127.122.119.212.206.263.258,1.474,1.485,3.133,1.477,4.009.7a2.366,2.366,0,0,0,.442-2.738,2.174,2.174,0,0,0,1.576-.761c.376-.461,1.062-1.787-.7-4.143a22.707,22.707,0,0,1-1.678-2.5,7.33,7.33,0,0,0,1.181-.1,2.053,2.053,0,0,0,1.4-.854c.941-1.334.457-3.838.1-5.667-.094-.485-.175-.9-.206-1.189a31.478,31.478,0,0,1-.078-6.712c1.25-5.5.005-9.22-1.093-12.5a30.733,30.733,0,0,1-.947-3.2c.009-.15.015-.3.014-.447a126.769,126.769,0,0,1,3.111-27.126c1.364-6.606,2.441-11.825,1.252-18.745.042-.205.084-.41.116-.622a107.561,107.561,0,0,0,1.119-17.436c.007-2.971.014-6.012.25-9.492a192.3,192.3,0,0,1,2.991,34.862c-2.346,9.7-4.7,25.85-4.354,38.5-.146,2.847-.359,5.9-.585,9.128-.953,13.622-2.141,30.574.425,50.661l.189,1.456c.544,4.168,1.454,11.138,2.072,20.708l-.015.161c-.023.25-.047.5-.068.759-.186,2.259-.172,5.759-.16,8.848.008,1.936.015,3.608-.032,4.539-.3,5.918-.215,8.879-.12,12.307.054,1.962.11,3.991.108,6.826,0,4.537.662,13.088,1.249,20.634.468,6.015.91,11.7.875,13.733-.03,1.772-.036,3.3-.04,4.708-.01,2.924-.018,5.238-.243,8-.146.489-.259.912-.355,1.327a60.31,60.31,0,0,1-4.139,12.182c-1.244,2.785-2,4.481-1.128,6.651.438,2.846,5.482,3.024,9.94,3.183l.769.028c.617.023,1.247.039,1.876.039,3.984,0,7.928-.621,8.21-3.735a40.126,40.126,0,0,0-.321-6.706c-.266-2.929-.63-6.938-.971-12.907a4.444,4.444,0,0,0-.012-.626c-1.149-12.167,1.12-24.225,2.339-30.7.255-1.356.476-2.527.612-3.417.123-.8.305-1.768.517-2.894a113.9,113.9,0,0,0,1.864-32.714l-.022-.231a24.086,24.086,0,0,1,1.123-4.37A49.835,49.835,0,0,0,299.3,255.8c.118-2.985.706-9.591,1.45-17.954,1.18-13.27,2.645-29.744,3.121-41.6a14.664,14.664,0,0,0,1.37-.7,14.671,14.671,0,0,0,1.37.7c.477,11.854,1.942,28.33,3.122,41.6.744,8.361,1.331,14.965,1.449,17.95a49.84,49.84,0,0,0,2.663,14.512,24.127,24.127,0,0,1,1.124,4.37l-.022.231a113.926,113.926,0,0,0,1.864,32.715c.212,1.126.395,2.1.517,2.893.137.89.358,2.063.613,3.42,1.219,6.478,3.487,18.536,2.338,30.7a4.289,4.289,0,0,0-.012.627c-.342,5.968-.705,9.977-.971,12.906a40.143,40.143,0,0,0-.321,6.706c.327,3.606,5.563,3.868,10.086,3.7l.768-.028c4.457-.158,9.5-.336,9.94-3.182.873-2.171.115-3.867-1.128-6.651a60.327,60.327,0,0,1-4.14-12.183c-.1-.416-.21-.84-.355-1.328-.225-2.757-.232-5.071-.242-8-.005-1.4-.01-2.935-.041-4.707-.034-2.038.407-7.719.875-13.733.587-7.545,1.252-16.1,1.249-20.633,0-2.835.055-4.864.109-6.826.1-3.428.177-6.389-.12-12.307-.047-.93-.041-2.6-.032-4.539.012-3.088.026-6.588-.16-8.848-.019-.234-.04-.459-.061-.684l-.022-.236c.618-9.57,1.528-16.54,2.072-20.708l.189-1.456c2.565-20.087,1.379-37.04.424-50.662-.226-3.23-.44-6.282-.585-9.128.349-12.645-2.008-28.79-4.354-38.495a192.309,192.309,0,0,1,2.991-34.862c.236,3.48.244,6.521.25,9.492a107.672,107.672,0,0,0,1.119,17.436c.032.211.074.416.116.622-1.189,6.921-.112,12.139,1.252,18.745a126.74,126.74,0,0,1,3.111,27.114c0,.156,0,.309.014.46a30.674,30.674,0,0,1-.947,3.2c-1.1,3.28-2.342,7-1.092,12.5a31.374,31.374,0,0,1-.079,6.712c-.03.284-.111.7-.205,1.189-.353,1.828-.837,4.333.1,5.667a2.053,2.053,0,0,0,1.4.854,7.216,7.216,0,0,0,1.181.1,22.925,22.925,0,0,1-1.677,2.5c-1.767,2.355-1.082,3.682-.705,4.143a2.177,2.177,0,0,0,1.576.761,2.366,2.366,0,0,0,.442,2.738c.877.773,2.535.779,4.009-.7.051-.052.141-.139.262-.258,3.96-3.855,6.047-6.514,6.377-8.127a13.108,13.108,0,0,1,1.106-3.039,15.8,15.8,0,0,0,1.143-3.016c.056-.226.22-.892-.329-4.585a2.472,2.472,0,0,0,1.133-2.784c-.655-4.787-2-13.568-2.575-17.256m.449,18.891a.723.723,0,0,0-.522.808,20.718,20.718,0,0,1,.439,4.581,14.447,14.447,0,0,1-1.051,2.752,14.455,14.455,0,0,0-1.212,3.358c-.15.733-1.124,2.666-5.968,7.381-.13.127-.227.221-.28.275-.886.892-1.719.911-2.026.639-.326-.287-.278-1.1.6-2.221a.723.723,0,0,0-.879-1.1c-.742.351-1.352.261-1.572-.009-.247-.3-.2-1.1.742-2.361a17.209,17.209,0,0,0,2.462-4.063c.094-.22.183-.429.295-.651a.737.737,0,0,0,.045-.111.748.748,0,0,0,.065-.1,7.675,7.675,0,0,1,.547-.845c.383-.523.917-1.69,1.134-5.773a.723.723,0,0,0-1.427-.2c-.157.693-.3,1.394-.424,2-.1.5-.189.931-.263,1.246a16.5,16.5,0,0,1-.854,2.911.79.79,0,0,0-.037.1.707.707,0,0,0-.061.092c-.294.521-.554.711-1.925.5a.6.6,0,0,1-.439-.258c-.586-.83-.135-3.165.134-4.559.1-.517.186-.963.223-1.307.115-1.059.462-5.385.051-7.188-1.16-5.107.016-8.621,1.054-11.721a30.859,30.859,0,0,0,1.011-3.456.732.732,0,0,0,.013-.2c-.01-.148-.018-.3-.017-.463a128,128,0,0,0-3.14-27.406c-1.333-6.457-2.386-11.557-1.233-18.255l.014-.07a.733.733,0,0,0,0-.277l-.019-.093c-.041-.2-.082-.394-.113-.6a106.333,106.333,0,0,1-1.1-17.223,113.179,113.179,0,0,0-.727-14.555.723.723,0,0,0-1.425-.063A189.509,189.509,0,0,0,332,144.337a.7.7,0,0,0,.021.171c2.332,9.611,4.682,25.673,4.332,38.226,0,.019,0,.038,0,.057.147,2.868.361,5.936.589,9.184.949,13.558,2.13,30.432-.417,50.378l-.188,1.452c-.548,4.194-1.465,11.212-2.085,20.858a.712.712,0,0,0,0,.112l.026.295c.021.22.041.441.059.669.182,2.2.167,5.815.155,8.722-.008,1.958-.014,3.648.034,4.618.3,5.862.214,8.8.12,12.194-.052,1.88-.111,4.012-.109,6.867,0,4.479-.66,13-1.245,20.52-.491,6.312-.915,11.763-.879,13.87.03,1.764.035,3.29.04,4.687.01,2.982.018,5.338.253,8.185a.734.734,0,0,0,.028.149c.147.488.259.905.353,1.311a62.466,62.466,0,0,0,4.228,12.446c1.213,2.716,1.766,3.955,1.078,5.593a.718.718,0,0,0-.052.2c-.187,1.707-5.434,1.893-8.568,2l-.772.028c-5.693.218-8.424-.539-8.591-2.381a39.584,39.584,0,0,1,.321-6.445c.267-2.946.634-6.98.978-13,0-.029,0-.058,0-.087a2.768,2.768,0,0,1,.005-.445c1.168-12.367-1.125-24.555-2.357-31.1-.254-1.345-.472-2.506-.605-3.373-.126-.819-.31-1.8-.524-2.941a112.556,112.556,0,0,1-1.845-32.328l.028-.287a.724.724,0,0,0,0-.147,24.839,24.839,0,0,0-1.193-4.725,47.978,47.978,0,0,1-2.595-14.13c-.12-3.02-.709-9.64-1.453-18.021-1.194-13.427-2.679-30.137-3.135-41.986a.722.722,0,0,0-.448-.64,13.307,13.307,0,0,1-1.967-1,.722.722,0,0,0-.765,0,13.249,13.249,0,0,1-1.966,1,.722.722,0,0,0-.447.64c-.456,11.848-1.942,28.556-3.135,41.982-.745,8.383-1.334,15-1.454,18.025a47.923,47.923,0,0,1-2.6,14.13,24.932,24.932,0,0,0-1.192,4.725.7.7,0,0,0,0,.147l.029.292a112.549,112.549,0,0,1-1.846,32.324c-.214,1.139-.4,2.122-.524,2.941-.133.866-.352,2.026-.6,3.37-1.232,6.548-3.526,18.737-2.358,31.108a2.82,2.82,0,0,1,.005.446.769.769,0,0,0,0,.086c.344,6.015.71,10.05.977,13a39.663,39.663,0,0,1,.322,6.444c-.167,1.843-2.9,2.6-8.591,2.381l-.773-.028c-3.134-.111-8.38-.3-8.567-2a.737.737,0,0,0-.053-.2c-.689-1.638-.136-2.877,1.077-5.593a62.432,62.432,0,0,0,4.228-12.446c.094-.4.205-.821.352-1.309a.663.663,0,0,0,.028-.149c.236-2.847.244-5.2.254-8.185,0-1.4.01-2.923.04-4.688.036-2.107-.388-7.558-.879-13.87-.585-7.519-1.248-16.041-1.245-20.521,0-2.855-.057-4.987-.109-6.867-.094-3.4-.176-6.332.119-12.194.049-.97.042-2.66.034-4.618-.012-2.908-.026-6.526.155-8.724.021-.254.044-.5.066-.743l.02-.219a.7.7,0,0,0,0-.113c-.62-9.647-1.537-16.666-2.085-20.859l-.188-1.452c-2.548-19.945-1.366-36.819-.417-50.377.227-3.248.442-6.315.588-9.183,0-.019,0-.038,0-.057-.35-12.553,2-28.615,4.332-38.228a.7.7,0,0,0,.02-.17,189.494,189.494,0,0,0-3.982-40.078.722.722,0,0,0-.706-.572h-.032a.723.723,0,0,0-.686.634,113.274,113.274,0,0,0-.727,14.555,106.334,106.334,0,0,1-1.1,17.222c-.031.2-.072.4-.113.6l-.019.093a.733.733,0,0,0,0,.277l.023.116c1.143,6.652.091,11.752-1.243,18.209a128.055,128.055,0,0,0-3.14,27.417c0,.154-.008.3-.017.452a.74.74,0,0,0,.013.2,30.8,30.8,0,0,0,1.011,3.457c1.038,3.1,2.214,6.615,1.054,11.721-.41,1.8-.064,6.128.051,7.188.037.344.123.791.223,1.307.269,1.395.72,3.729.134,4.559a.6.6,0,0,1-.439.258c-1.375.208-1.631.018-1.925-.5a.756.756,0,0,0-.061-.091.785.785,0,0,0-.038-.1,16.6,16.6,0,0,1-.854-2.911c-.095-.408-.217-1.315-.346-2.276-.117-.876-.251-1.869-.4-2.783a.715.715,0,0,0-.78-.6.723.723,0,0,0-.656.737c.144,6.2.942,7.29,1.2,7.648a7.856,7.856,0,0,1,.547.844.782.782,0,0,0,.064.1.827.827,0,0,0,.045.111c.113.223.2.431.3.651a17.194,17.194,0,0,0,2.463,4.064c.943,1.258.99,2.058.742,2.361-.22.27-.829.36-1.571.009a.723.723,0,0,0-.879,1.1c.873,1.117.921,1.934.6,2.221-.309.272-1.14.253-2.026-.639-.055-.055-.151-.148-.281-.275-4.843-4.715-5.818-6.648-5.968-7.381a14.472,14.472,0,0,0-1.212-3.358,14.472,14.472,0,0,1-1.051-2.753,20.718,20.718,0,0,1,.439-4.581.723.723,0,0,0-.522-.808c-.445-.123-.837-.382-.693-1.439.625-4.572,1.891-12.834,2.589-17.353a.7.7,0,0,0,0-.246,10.675,10.675,0,0,1-.164-1.226c-.129-1.774-.4-4.221-.705-7.056-1.162-10.645-3.106-28.462-.622-39.414a.605.605,0,0,0,.016-.1c1.569-20.526,1.92-31.3,2.153-38.424.265-8.112.354-10.844,1.947-17.2C264.4,67.194,273.006,64.707,280.987,64a.714.714,0,0,0,.217-.054c2.541-1.071,5.4-1.82,7.394-2.735l.134-.065a7.2,7.2,0,0,0,1.5-.9l.1-.076c.294-.216.58-.441.853-.676l.029-.023h0a21.731,21.731,0,0,0,3.53-4.007.758.758,0,0,0,.125-.417V42.324a.759.759,0,0,0-1.518,0v.251a12.371,12.371,0,0,1-1.52-2.587c-2.026-5.287-2.561-14.38-2.561-18.449,0-.362-.006-.744-.011-1.142l0-.113c-.048-3.208-.112-7.591,2.353-11.536l.019.013.054-.093a12.368,12.368,0,0,1,3.867-4.141A16.558,16.558,0,0,1,304.866,1.5c.1,0,.2,0,.314,0l.444,0a16.635,16.635,0,0,1,9.36,3.061,12.339,12.339,0,0,1,4,4.4l.084.083,0,0c2.193,3.705,2.177,7.663,2.164,10.848,0,.592,0,1.151.007,1.673.066,2.837-.436,12.882-2.561,18.431a12.229,12.229,0,0,1-1.486,2.539v-.2a.759.759,0,0,0-1.518,0v12.72a.761.761,0,0,0,.125.417,21.889,21.889,0,0,0,3.441,3.927h-.006l.1.089.171.144.371.314a9.075,9.075,0,0,0,1.155.788,8.9,8.9,0,0,0,1.056.552c2.145,1,4.743,1.642,7.188,2.673A.721.721,0,0,0,329.5,64c7.981.706,16.582,3.192,19.863,16.274,1.593,6.352,1.682,9.084,1.947,17.2.233,7.128.584,17.9,2.152,38.424a.657.657,0,0,0,.016.1c2.484,10.954.539,28.772-.622,39.418-.309,2.833-.576,5.279-.705,7.052a10.394,10.394,0,0,1-.164,1.225.711.711,0,0,0,0,.247c.559,3.609,1.929,12.523,2.589,17.353.144,1.057-.247,1.316-.693,1.439" transform="translate(-125.662 0)"/>
        <path id="パス_920" data-name="パス 920" d="M327.733,53.435a29.064,29.064,0,0,1,3.6,11.613" transform="translate(-161.923 -26.401)" fill="#fff"/>
        <path id="パス_921" data-name="パス 921" d="M378.524,53.435a29.068,29.068,0,0,0-3.6,11.613" transform="translate(-185.24 -26.401)" fill="#fff"/>
        <path id="パス_922" data-name="パス 922" d="M354.618,73.12a28.965,28.965,0,0,0-15.63,0,.759.759,0,0,0,.452,1.448,27.876,27.876,0,0,1,14.726,0,.751.751,0,0,0,.226.035.759.759,0,0,0,.226-1.483" transform="translate(-167.221 -35.586)"/>
        <path id="パス_923" data-name="パス 923" d="M326.6,52.043a.759.759,0,0,0-.26,1.041,28.439,28.439,0,0,1,3.491,11.272.759.759,0,0,0,.756.709l.051,0a.758.758,0,0,0,.708-.807,29.561,29.561,0,0,0-3.7-11.953.758.758,0,0,0-1.041-.261" transform="translate(-161.182 -25.659)"/>
        <path id="パス_924" data-name="パス 924" d="M378.173,52.044a.759.759,0,0,0-1.041.261,29.566,29.566,0,0,0-3.7,11.953.759.759,0,0,0,.708.807l.051,0a.759.759,0,0,0,.756-.709,28.519,28.519,0,0,1,3.492-11.272.76.76,0,0,0-.262-1.041" transform="translate(-184.499 -25.66)"/>
        <path id="パス_925" data-name="パス 925" d="M320.248,51.15s-1.682-2.577-2.6-1.031a9.188,9.188,0,0,0-.949,4.91,3.122,3.122,0,0,0,.814,2.468c.759.841,1.085.732,2.034,2.007s2.17,1.953,3.337,1.546" transform="translate(-156.458 -24.518)" fill="#fff"/>
        <path id="パス_926" data-name="パス 926" d="M321.456,61.184a4.248,4.248,0,0,1-3.264-1.968,5.027,5.027,0,0,0-1.114-1.153,6.2,6.2,0,0,1-.876-.8,3.574,3.574,0,0,1-.992-2.679l-.016-.245a9.891,9.891,0,0,1,1.055-5.351,1.59,1.59,0,0,1,1.351-.864c1.217,0,2.25,1.425,2.54,1.869a.758.758,0,1,1-1.27.829,3.024,3.024,0,0,0-1.231-1.18c0,.007-.036.04-.086.124a8.466,8.466,0,0,0-.844,4.47l.017.251c.063.973.076,1.176.6,1.759a4.756,4.756,0,0,0,.684.621,6.508,6.508,0,0,1,1.4,1.442c.381.513,1.388,1.662,2.478,1.283a.759.759,0,0,1,.5,1.433,2.819,2.819,0,0,1-.931.158" transform="translate(-155.717 -23.777)"/>
        <path id="パス_927" data-name="パス 927" d="M383.579,51.15s1.682-2.577,2.6-1.031a9.187,9.187,0,0,1,.949,4.91,3.121,3.121,0,0,1-.814,2.468c-.759.841-1.085.732-2.034,2.007s-2.17,1.953-3.337,1.546" transform="translate(-188.215 -24.518)" fill="#fff"/>
        <path id="パス_928" data-name="パス 928" d="M380.887,61.184a2.816,2.816,0,0,1-.93-.158.759.759,0,0,1,.5-1.433c1.094.382,2.1-.77,2.478-1.283a6.492,6.492,0,0,1,1.4-1.441,4.785,4.785,0,0,0,.683-.621c.528-.584.541-.787.6-1.76l.017-.25a8.456,8.456,0,0,0-.844-4.47.4.4,0,0,0-.1-.131,3.191,3.191,0,0,0-1.214,1.188.759.759,0,0,1-1.27-.83c.287-.441,1.313-1.869,2.51-1.869h.03a1.592,1.592,0,0,1,1.351.864,9.89,9.89,0,0,1,1.054,5.351l-.016.244a3.571,3.571,0,0,1-.992,2.68,6.234,6.234,0,0,1-.875.8,5,5,0,0,0-1.113,1.152,4.249,4.249,0,0,1-3.265,1.968" transform="translate(-187.474 -23.777)"/>
      </g>
    </g>
    <g id="脱毛範囲_脚_" data-name="脱毛範囲（脚）" opacity="0.6" style="mix-blend-mode: multiply;isolation: isolate">
      <path id="脚-2" data-name="脚" d="M2320.04,4544.005s-3.95,51.232-4.381,54.808.883,9.478-3.576,22.4c-.3,3.447-.56,4.739,0,8.035s.862,13.916-5.17,43.792c-1.443,8.186-.711,15.078,0,21.691s2.585,18.094,0,18.094h-12.644s-3.877-.151,0-6.893,4.437-11.782,4.588-18.675-3.3-42.8-2-60.313-2.205-33.746-3.648-47.984,2.063-51.918,2.063-51.918S2311.815,4540.894,2320.04,4544.005Z" transform="translate(-1796 -4145)" fill="#e05842"/>
      <path id="脚-3" data-name="脚" d="M2292.546,4544.005s3.95,51.232,4.381,54.808-.883,9.478,3.576,22.4c.3,3.447.56,4.739,0,8.035s-.862,13.916,5.17,43.792c1.443,8.186.711,15.078,0,21.691s-2.585,18.094,0,18.094h12.644s3.877-.151,0-6.893-4.437-11.782-4.588-18.675,3.3-42.8,2-60.313,2.205-33.746,3.648-47.984-2.063-51.918-2.063-51.918S2300.77,4540.894,2292.546,4544.005Z" transform="translate(-1759.746 -4145)" fill="#e05842"/>
    </g>
    <g id="脱毛範囲_脚_2" data-name="脱毛範囲（脚）" opacity="0.6">
      <path id="脚-4" data-name="脚" d="M2320.576,4546.058s-4.487,49.179-4.917,52.755.883,9.478-3.576,22.4c-.3,3.447-.56,4.739,0,8.035s1.363,14.827-4.668,44.7c-.248,1.536-.432,3.863-.68,6.935s1.729,7.845-.855,7.845h-5.751a1.4,1.4,0,0,1-1.729-1.547c.083-1.871.156-1.409.276-5.668s-3.114-37.06-1.821-54.572-1.724-31.925-3.167-46.164.559-38.967.559-38.967S2299.438,4551.654,2320.576,4546.058Z" transform="translate(-1667.969 -4145)" fill="#e05842"/>
      <path id="脚-5" data-name="脚" d="M2293.164,4546.058s4.487,49.179,4.917,52.755-.883,9.478,3.576,22.4c.3,3.447.56,4.739,0,8.035s-1.363,14.827,4.668,44.7c.248,1.536.432,3.863.68,6.935s-1.729,7.845.855,7.845h5.751a1.4,1.4,0,0,0,1.729-1.547c-.083-1.871-.156-1.409-.276-5.668s3.114-37.06,1.821-54.572,1.724-31.925,3.167-46.164-.559-38.967-.559-38.967S2314.3,4551.654,2293.164,4546.058Z" transform="translate(-1632.164 -4145)" fill="#e05842"/>
    </g>
  </g>
</svg>
