<svg xmlns="http://www.w3.org/2000/svg" xmlns:xlink="http://www.w3.org/1999/xlink" width="552" zoomAndPan="magnify" viewBox="0 0 414 143.999998" height="192" preserveAspectRatio="xMidYMid meet" version="1.0"><defs><g/><clipPath id="c288727409"><rect x="0" width="414" y="0" height="144"/></clipPath></defs><g transform="matrix(1, 0, 0, 1, 0, -0.000000000000008916)"><g clip-path="url(#c288727409)"><g fill="#ffffff" fill-opacity="1"><g transform="translate(-15.134974, 126.860309)"><g><path d="M 17.765625 0 L 46.9375 0 L 78.546875 -97.125 L 111.453125 -97.125 L 119.28125 -121.40625 L 24.4375 -121.40625 L 16.625 -97.125 L 49.375 -97.125 Z M 17.765625 0 "/></g></g></g><g fill="#ffffff" fill-opacity="1"><g transform="translate(84.260159, 126.860309)"><g><path d="M 43.1875 2.28125 C 51.4375 2.28125 59.445312 0.84375 67.21875 -2.03125 C 74.988281 -4.914062 82.210938 -9.097656 88.890625 -14.578125 C 95.566406 -20.066406 101.515625 -26.75 106.734375 -34.625 C 111.953125 -42.5 116.1875 -51.378906 119.4375 -61.265625 C 122.695312 -71.148438 124.21875 -79.945312 124 -87.65625 C 123.789062 -95.375 122.109375 -101.894531 118.953125 -107.21875 C 115.804688 -112.539062 111.269531 -116.585938 105.34375 -119.359375 C 99.425781 -122.128906 92.335938 -123.515625 84.078125 -123.515625 C 75.828125 -123.515625 67.84375 -122.128906 60.125 -119.359375 C 52.414062 -116.585938 45.25 -112.566406 38.625 -107.296875 C 32 -102.035156 26.101562 -95.546875 20.9375 -87.828125 C 15.78125 -80.117188 11.570312 -71.265625 8.3125 -61.265625 C 5.050781 -51.378906 3.5 -42.5 3.65625 -34.625 C 3.820312 -26.75 5.453125 -20.066406 8.546875 -14.578125 C 11.648438 -9.097656 16.132812 -4.914062 22 -2.03125 C 27.863281 0.84375 34.925781 2.28125 43.1875 2.28125 Z M 51.328125 -22.8125 C 47.304688 -22.8125 44.019531 -23.707031 41.46875 -25.5 C 38.914062 -27.289062 37.066406 -29.867188 35.921875 -33.234375 C 34.785156 -36.609375 34.378906 -40.65625 34.703125 -45.375 C 35.035156 -50.101562 36.175781 -55.398438 38.125 -61.265625 C 41.925781 -73.109375 47.164062 -82.289062 53.84375 -88.8125 C 60.53125 -95.332031 67.894531 -98.59375 75.9375 -98.59375 C 83.976562 -98.59375 89.242188 -95.332031 91.734375 -88.8125 C 94.234375 -82.289062 93.582031 -73.109375 89.78125 -61.265625 C 87.832031 -55.398438 85.5 -50.101562 82.78125 -45.375 C 80.0625 -40.65625 77.019531 -36.609375 73.65625 -33.234375 C 70.289062 -29.867188 66.734375 -27.289062 62.984375 -25.5 C 59.234375 -23.707031 55.347656 -22.8125 51.328125 -22.8125 Z M 51.328125 -22.8125 "/></g></g></g><g fill="#ffffff" fill-opacity="1"><g transform="translate(207.445018, 126.860309)"><g><path d="M -5.703125 0 L 23.46875 0 L 36.5 -40.25 L 50.671875 -40.25 C 57.085938 -40.25 63.472656 -41.0625 69.828125 -42.6875 C 76.179688 -44.320312 82.097656 -46.820312 87.578125 -50.1875 C 93.066406 -53.550781 97.957031 -57.867188 102.25 -63.140625 C 106.539062 -68.410156 109.828125 -74.628906 112.109375 -81.796875 C 114.609375 -89.296875 115.394531 -95.570312 114.46875 -100.625 C 113.550781 -105.675781 111.378906 -109.75 107.953125 -112.84375 C 104.535156 -115.9375 100.082031 -118.132812 94.59375 -119.4375 C 89.101562 -120.75 83.046875 -121.40625 76.421875 -121.40625 L 33.734375 -121.40625 Z M 44 -63.21875 L 55.40625 -98.265625 L 67.296875 -98.265625 C 74.359375 -98.265625 79.351562 -97.039062 82.28125 -94.59375 C 85.21875 -92.144531 85.710938 -87.878906 83.765625 -81.796875 C 81.804688 -75.828125 78.597656 -71.238281 74.140625 -68.03125 C 69.691406 -64.820312 63.878906 -63.21875 56.703125 -63.21875 Z M 44 -63.21875 "/></g></g></g><g fill="#ffffff" fill-opacity="1"><g transform="translate(314.498486, 126.860309)"><g><path d="M 25.09375 2.28125 C 31.175781 2.28125 37.175781 1.519531 43.09375 0 C 49.019531 -1.519531 54.507812 -3.742188 59.5625 -6.671875 C 64.613281 -9.609375 69.039062 -13.222656 72.84375 -17.515625 C 76.644531 -21.804688 79.414062 -26.722656 81.15625 -32.265625 C 82.34375 -36.066406 82.851562 -39.515625 82.6875 -42.609375 C 82.53125 -45.703125 81.800781 -48.441406 80.5 -50.828125 C 79.195312 -53.222656 77.40625 -55.265625 75.125 -56.953125 C 72.84375 -58.640625 70.179688 -59.96875 67.140625 -60.9375 L 67.46875 -61.765625 C 82.132812 -67.191406 91.421875 -75.878906 95.328125 -87.828125 C 97.066406 -93.046875 97.609375 -97.691406 96.953125 -101.765625 C 96.304688 -105.835938 94.597656 -109.257812 91.828125 -112.03125 C 89.054688 -114.800781 85.359375 -116.914062 80.734375 -118.375 C 76.117188 -119.84375 70.660156 -120.578125 64.359375 -120.578125 C 57.191406 -120.578125 50.101562 -119.21875 43.09375 -116.5 C 36.09375 -113.789062 29.003906 -110.101562 21.828125 -105.4375 L 30.796875 -87.671875 C 35.578125 -90.929688 39.894531 -93.457031 43.75 -95.25 C 47.601562 -97.039062 51.597656 -97.9375 55.734375 -97.9375 C 64.960938 -97.9375 68.21875 -93.804688 65.5 -85.546875 C 64.851562 -83.378906 63.769531 -81.367188 62.25 -79.515625 C 60.726562 -77.671875 58.691406 -76.097656 56.140625 -74.796875 C 53.585938 -73.492188 50.460938 -72.460938 46.765625 -71.703125 C 43.078125 -70.941406 38.625 -70.5625 33.40625 -70.5625 L 26.890625 -50.03125 C 33.296875 -50.03125 38.375 -49.675781 42.125 -48.96875 C 45.875 -48.257812 48.671875 -47.222656 50.515625 -45.859375 C 52.359375 -44.503906 53.390625 -42.847656 53.609375 -40.890625 C 53.828125 -38.941406 53.503906 -36.71875 52.640625 -34.21875 C 51.222656 -29.976562 48.476562 -26.742188 44.40625 -24.515625 C 40.332031 -22.296875 35.472656 -21.1875 29.828125 -21.1875 C 25.046875 -21.1875 20.914062 -22.269531 17.4375 -24.4375 C 13.957031 -26.613281 10.914062 -29.441406 8.3125 -32.921875 L -10.921875 -14.671875 C -8.097656 -9.453125 -3.804688 -5.320312 1.953125 -2.28125 C 7.710938 0.757812 15.425781 2.28125 25.09375 2.28125 Z M 25.09375 2.28125 "/></g></g></g></g></g></svg>