<svg xmlns="http://www.w3.org/2000/svg" xmlns:xlink="http://www.w3.org/1999/xlink" width="552" zoomAndPan="magnify" viewBox="0 0 414 143.999998" height="192" preserveAspectRatio="xMidYMid meet" version="1.0"><defs><g/><clipPath id="985af86cff"><rect x="0" width="413" y="0" height="144"/></clipPath></defs><g transform="matrix(1, 0, 0, 1, 0, -0.000000000000008916)"><g clip-path="url(#985af86cff)"><g fill="#ffffff" fill-opacity="1"><g transform="translate(-15.884973, 137.747796)"><g><path d="M 19.296875 0 L 50.96875 0 L 85.3125 -105.484375 L 121.0625 -105.484375 L 129.5625 -131.859375 L 26.546875 -131.859375 L 18.046875 -105.484375 L 53.625 -105.484375 Z M 19.296875 0 "/></g></g></g><g fill="#ffffff" fill-opacity="1"><g transform="translate(79.69123, 137.747796)"><g><path d="M 46.90625 2.484375 C 55.875 2.484375 64.578125 0.921875 73.015625 -2.203125 C 81.453125 -5.335938 89.296875 -9.882812 96.546875 -15.84375 C 103.804688 -21.800781 110.269531 -29.054688 115.9375 -37.609375 C 121.601562 -46.160156 126.203125 -55.804688 129.734375 -66.546875 C 133.273438 -77.285156 134.925781 -86.84375 134.6875 -95.21875 C 134.457031 -103.601562 132.628906 -110.6875 129.203125 -116.46875 C 125.785156 -122.25 120.859375 -126.644531 114.421875 -129.65625 C 107.992188 -132.664062 100.296875 -134.171875 91.328125 -134.171875 C 82.359375 -134.171875 73.6875 -132.664062 65.3125 -129.65625 C 56.9375 -126.644531 49.148438 -122.273438 41.953125 -116.546875 C 34.753906 -110.828125 28.351562 -103.78125 22.75 -95.40625 C 17.144531 -87.03125 12.570312 -77.410156 9.03125 -66.546875 C 5.488281 -55.804688 3.804688 -46.160156 3.984375 -37.609375 C 4.160156 -29.054688 5.929688 -21.800781 9.296875 -15.84375 C 12.660156 -9.882812 17.523438 -5.335938 23.890625 -2.203125 C 30.265625 0.921875 37.9375 2.484375 46.90625 2.484375 Z M 55.75 -24.78125 C 51.382812 -24.78125 47.816406 -25.753906 45.046875 -27.703125 C 42.273438 -29.648438 40.269531 -32.453125 39.03125 -36.109375 C 37.789062 -39.765625 37.347656 -44.160156 37.703125 -49.296875 C 38.054688 -54.429688 39.296875 -60.179688 41.421875 -66.546875 C 45.546875 -79.410156 51.238281 -89.378906 58.5 -96.453125 C 65.757812 -103.535156 73.753906 -107.078125 82.484375 -107.078125 C 91.210938 -107.078125 96.929688 -103.535156 99.640625 -96.453125 C 102.359375 -89.378906 101.65625 -79.410156 97.53125 -66.546875 C 95.40625 -60.179688 92.863281 -54.429688 89.90625 -49.296875 C 86.957031 -44.160156 83.65625 -39.765625 80 -36.109375 C 76.34375 -32.453125 72.476562 -29.648438 68.40625 -27.703125 C 64.332031 -25.753906 60.113281 -24.78125 55.75 -24.78125 Z M 55.75 -24.78125 "/></g></g></g><g fill="#ffffff" fill-opacity="1"><g transform="translate(201.108769, 137.747796)"><g><path d="M -6.1875 0 L 25.484375 0 L 39.640625 -43.71875 L 55.046875 -43.71875 C 62.003906 -43.71875 68.9375 -44.601562 75.84375 -46.375 C 82.75 -48.144531 89.179688 -50.859375 95.140625 -54.515625 C 101.097656 -58.171875 106.40625 -62.859375 111.0625 -68.578125 C 115.726562 -74.304688 119.300781 -81.066406 121.78125 -88.859375 C 124.488281 -96.992188 125.34375 -103.804688 124.34375 -109.296875 C 123.34375 -114.785156 120.984375 -119.207031 117.265625 -122.5625 C 113.546875 -125.925781 108.707031 -128.316406 102.75 -129.734375 C 96.789062 -131.148438 90.210938 -131.859375 83.015625 -131.859375 L 36.640625 -131.859375 Z M 47.796875 -68.671875 L 60.1875 -106.734375 L 73.09375 -106.734375 C 80.769531 -106.734375 86.195312 -105.40625 89.375 -102.75 C 92.5625 -100.09375 93.097656 -95.460938 90.984375 -88.859375 C 88.859375 -82.367188 85.375 -77.378906 80.53125 -73.890625 C 75.695312 -70.410156 69.382812 -68.671875 61.59375 -68.671875 Z M 47.796875 -68.671875 "/></g></g></g><g fill="#ffffff" fill-opacity="1"><g transform="translate(305.003757, 137.747796)"><g><path d="M 27.265625 2.484375 C 33.867188 2.484375 40.382812 1.65625 46.8125 0 C 53.25 -1.65625 59.207031 -4.070312 64.6875 -7.25 C 70.175781 -10.4375 74.984375 -14.359375 79.109375 -19.015625 C 83.242188 -23.679688 86.253906 -29.023438 88.140625 -35.046875 C 89.441406 -39.171875 90.003906 -42.914062 89.828125 -46.28125 C 89.648438 -49.644531 88.851562 -52.625 87.4375 -55.21875 C 86.019531 -57.820312 84.070312 -60.035156 81.59375 -61.859375 C 79.113281 -63.691406 76.222656 -65.140625 72.921875 -66.203125 L 73.28125 -67.078125 C 89.207031 -72.984375 99.296875 -82.425781 103.546875 -95.40625 C 105.429688 -101.070312 106.019531 -106.113281 105.3125 -110.53125 C 104.601562 -114.957031 102.742188 -118.675781 99.734375 -121.6875 C 96.722656 -124.695312 92.710938 -127 87.703125 -128.59375 C 82.691406 -130.1875 76.765625 -130.984375 69.921875 -130.984375 C 62.128906 -130.984375 54.425781 -129.503906 46.8125 -126.546875 C 39.207031 -123.597656 31.507812 -119.585938 23.71875 -114.515625 L 33.453125 -95.21875 C 38.640625 -98.757812 43.328125 -101.503906 47.515625 -103.453125 C 51.710938 -105.398438 56.050781 -106.375 60.53125 -106.375 C 70.5625 -106.375 74.101562 -101.890625 71.15625 -92.921875 C 70.445312 -90.566406 69.265625 -88.382812 67.609375 -86.375 C 65.960938 -84.363281 63.75 -82.648438 60.96875 -81.234375 C 58.195312 -79.828125 54.804688 -78.707031 50.796875 -77.875 C 46.785156 -77.050781 41.945312 -76.640625 36.28125 -76.640625 L 29.203125 -54.34375 C 36.160156 -54.34375 41.675781 -53.957031 45.75 -53.1875 C 49.820312 -52.414062 52.859375 -51.289062 54.859375 -49.8125 C 56.867188 -48.34375 57.992188 -46.546875 58.234375 -44.421875 C 58.472656 -42.296875 58.117188 -39.878906 57.171875 -37.171875 C 55.640625 -32.566406 52.660156 -29.054688 48.234375 -26.640625 C 43.804688 -24.222656 38.523438 -23.015625 32.390625 -23.015625 C 27.203125 -23.015625 22.71875 -24.191406 18.9375 -26.546875 C 15.164062 -28.910156 11.863281 -31.976562 9.03125 -35.75 L -11.859375 -15.9375 C -8.785156 -10.269531 -4.125 -5.78125 2.125 -2.46875 C 8.375 0.832031 16.753906 2.484375 27.265625 2.484375 Z M 27.265625 2.484375 "/></g></g></g></g></g></svg>