<svg xmlns="http://www.w3.org/2000/svg" width="203.975" height="283.097" viewBox="0 0 203.975 283.097">
  <g id="顔" transform="translate(0.503 0.5)">
    <path id="脱毛範囲" d="M195.731,282.089s-32.382-21.06-45.063-38.2c0,0-5.207-4.889-5.207-16.444V152.584H101.584v.008H57.723V227.45c0,11.555-5.206,16.444-5.206,16.444C39.835,261.037,7.453,282.1,7.453,282.1H101.6v-.008Z" fill="#e05842" opacity="0.6" style="mix-blend-mode: multiply;isolation: isolate"/>
    <path id="パス" d="M164.2,98.2c-.044-1.908-.036-3.964-.027-6.142.048-11.769.112-27.752-8.667-42.433-1.651-3.082-15.432-26.388-54.336-26.388-34.142,0-49.325,18.87-53.305,24.9a.473.473,0,0,0-.082.085c-10.053,15.683-9.8,32.843-9.611,45.373.025,1.616.048,3.161.048,4.62,0,15.383,2.042,49.8,9.772,69.978,4.033,10.525,20.619,27.936,27.563,34.933,6.474,6.524,12.736,10.328,25.44,10.4h.429c12.705-.077,18.966-3.881,25.441-10.4,6.943-7,23.529-24.408,27.562-34.933,8.1-21.146,10.023-59.242,9.773-69.991" fill="#fff"/>
    <path id="線画" d="M-233.707-258.158c-33.645-21.811-51.225-38.349-52.253-49.154-.638-6.715-.273-38.4-.1-50.871a246.433,246.433,0,0,1-20.084,22.638c-6.667,6.719-13.081,10.624-26.145,10.7h-.438l-.077,0c-12.989-.075-19.4-3.98-26.07-10.7a244.375,244.375,0,0,1-20.32-22.954c.176,12.584.547,44.432-.094,51.187-1.028,10.806-18.672,27.345-52.441,49.157a1.566,1.566,0,0,1-.85.251,1.563,1.563,0,0,1-1.318-.718,1.558,1.558,0,0,1-.215-1.179,1.553,1.553,0,0,1,.682-.986c31.995-20.666,50.116-37.3,51.021-46.823.737-7.741.058-52.658.014-55.392a42.1,42.1,0,0,1-4.265-7.823,101.277,101.277,0,0,1-3.935-13.315,1.53,1.53,0,0,1-.167-.685c0-.022,0-.043,0-.064q-.321-1.424-.622-2.875a36.1,36.1,0,0,0-3.025-5.465c-2.67-4.276-5.99-9.594-7.686-17.708-.643-3.072-1.338-5.912-2.012-8.66-2.056-8.4-3.543-14.476-1.107-17.91a5.554,5.554,0,0,1,.7-.8c-2.619-19.535-4.955-66.229,27.65-87.809C-364.368-535.693-346.371-540-334.1-540c.448,0,.888.006,1.32.016h.512c.414-.011.866-.017,1.326-.017,12.245,0,30.228,4.314,42.8,13.953,32.52,21.519,30.182,68.21,27.562,87.746a5.5,5.5,0,0,1,.7.8c2.436,3.435.951,9.507-1.107,17.909-.678,2.776-1.371,5.605-2.01,8.662-1.7,8.113-5.016,13.431-7.685,17.7a38.585,38.585,0,0,0-2.918,5.219,111.218,111.218,0,0,1-4.756,17.187,43.077,43.077,0,0,1-4.5,8.172c-.076,5-.695,47.531.019,55.043.907,9.528,18.962,26.158,50.841,46.823a1.569,1.569,0,0,1,.463,2.167,1.563,1.563,0,0,1-1.315.715A1.56,1.56,0,0,1-233.707-258.158Zm-150.9-234.006a1.555,1.555,0,0,1,.682.983,1.564,1.564,0,0,1-.212,1.183c-9.7,15.14-9.455,31.928-9.273,44.185.024,1.63.047,3.186.047,4.656,0,11.493,1.146,33.692,4.973,52.443a11.16,11.16,0,0,1,.734,3.389,99.886,99.886,0,0,0,3.925,13.384c3.888,10.147,20.236,27.292,27.085,34.192,6.119,6.166,12.031,9.742,24.143,9.775,12.106-.032,18.018-3.609,24.137-9.775,5.225-5.265,15.975-16.491,22.507-26.025a1.5,1.5,0,0,1,.33-.483,40.451,40.451,0,0,0,4.247-7.683,98.5,98.5,0,0,0,3.819-12.966,11.11,11.11,0,0,1,.878-4.094,290.314,290.314,0,0,0,4.832-43.852,1.538,1.538,0,0,1,.014-.445c.108-3.271.131-5.965.089-7.823-.045-1.938-.038-4.008-.029-6.2.051-12.542.114-28.151-9.2-42.679a1.557,1.557,0,0,1-.211-1.182,1.555,1.555,0,0,1,.684-.984,1.562,1.562,0,0,1,.846-.248,1.559,1.559,0,0,1,1.32.723c9.812,15.306,9.743,32.112,9.694,44.381-.009,2.171-.017,4.221.027,6.115.021.9.024,2,.013,3.255a5.529,5.529,0,0,1,3.585-2.049c.08,0,.158,0,.238.01a9.685,9.685,0,0,1,1.136.184c2.473-19.531,4.139-63.48-26.415-83.7-12.071-9.248-29.256-13.37-40.957-13.37q-.667,0-1.308.018h-.6c-.457-.012-.895-.018-1.342-.018-11.706,0-28.886,4.114-40.88,13.307-30.636,20.281-28.975,64.234-26.5,83.765a9.477,9.477,0,0,1,1.132-.183c.082-.007.162-.012.243-.012,1.258,0,2.552.942,3.706,2.173-.019-1.191-.029-2.311-.029-3.342,0-1.454-.023-2.993-.049-4.606-.188-12.657-.446-29.991,9.77-45.929a1.56,1.56,0,0,1,1.319-.72A1.565,1.565,0,0,1-384.61-492.164Zm-18.049,56.474c-1.608,2.266-.124,8.33,1.595,15.35.647,2.64,1.38,5.629,2.034,8.763a44.916,44.916,0,0,0,5.989,14.6,311.346,311.346,0,0,1-3.28-35.374c-1.436-2.354-3.28-4.383-3.879-4.511A3.264,3.264,0,0,0-402.659-435.69Zm134.027,3.116a314.622,314.622,0,0,1-3.338,35.459,44.727,44.727,0,0,0,5.9-14.461c.656-3.133,1.388-6.123,2.034-8.762,1.719-7.02,3.2-13.085,1.6-15.351a3.31,3.31,0,0,0-2.543-1.169C-265.429-436.751-267.092-435.041-268.632-432.574Zm-64.749,128.786a8.216,8.216,0,0,1-2.332-5.486,6.612,6.612,0,0,1,2.484-4.837,1.5,1.5,0,0,1,2.117.132,1.5,1.5,0,0,1-.133,2.118,3.7,3.7,0,0,0-1.469,2.672,5.187,5.187,0,0,0,1.441,3.268,1.5,1.5,0,0,1,.014,2.12,1.493,1.493,0,0,1-1.067.446A1.492,1.492,0,0,1-333.381-303.788Zm-12.385-53.34A1.569,1.569,0,0,1-347-358.964a1.573,1.573,0,0,1,1.542-1.268,1.6,1.6,0,0,1,.284.026c.35.068,8.177,1.571,11.68,1.571s11.329-1.5,11.661-1.569a1.733,1.733,0,0,1,.3-.029,1.572,1.572,0,0,1,1.54,1.265,1.57,1.57,0,0,1-1.236,1.839c-.857.167-8.46,1.626-12.269,1.626S-344.911-356.961-345.766-357.128Zm12.114-5.83c-2.293-.265-10.854-.436-11.823-.455h-.064l-9.018-1.336a1.548,1.548,0,0,1-1.028-.617,1.557,1.557,0,0,1-.292-1.165,1.573,1.573,0,0,1,1.545-1.335h.078l.162.019,8.789,1.309c.9.016,9.105.17,11.8.446,2.47-.252,9.691-.41,11.873-.452l10.728-1.318.132,0a1.568,1.568,0,0,1,1.552,1.376,1.556,1.556,0,0,1-.32,1.155,1.558,1.558,0,0,1-1.045.591l-10.762,1.319-.383.014c-6.088.13-10.2.29-11.593.451l-.058.007-.124,0Zm2.968-18.211a1.571,1.571,0,0,1,.348-2.187c.286-.209,2.888-2.065,5.354-2.065a4.3,4.3,0,0,1,1.026.12,1.546,1.546,0,0,1,.965.7,1.561,1.561,0,0,1,.185,1.187,1.561,1.561,0,0,1-1.519,1.2,1.629,1.629,0,0,1-.379-.046,1.25,1.25,0,0,0-.286-.031,7.734,7.734,0,0,0-3.5,1.471,1.556,1.556,0,0,1-.919.3A1.573,1.573,0,0,1-330.683-381.17Zm-5.92.349a7.766,7.766,0,0,0-3.506-1.469,1.285,1.285,0,0,0-.288.031,1.626,1.626,0,0,1-.371.044,1.562,1.562,0,0,1-1.522-1.2,1.561,1.561,0,0,1,.184-1.187,1.562,1.562,0,0,1,.97-.707,4.349,4.349,0,0,1,1.019-.117c2.43,0,5.063,1.853,5.354,2.064a1.571,1.571,0,0,1,.351,2.189,1.578,1.578,0,0,1-1.27.648A1.56,1.56,0,0,1-336.6-380.821Zm32.823-37.777c-.013,0-.024.006-.036.006s-.043-.01-.065-.01c-5.56-.238-13.711-1.873-14.518-3.79a1.652,1.652,0,0,1,.111-1.513c2.534-5.135,8.646-9.016,15.618-9.9a23.275,23.275,0,0,1,2.917-.186A17.61,17.61,0,0,1-285.975-428a1.568,1.568,0,0,1-.187,2.208,1.14,1.14,0,0,1-.136.079c.241.237.386.4.414.428l1.34,1.522-1.814.912c-.32.161-7.922,3.936-14.915,4.257-.423.019-.858.029-1.3.029C-302.956-418.569-303.363-418.58-303.781-418.6Zm-10.376-4.841a42.492,42.492,0,0,0,5.58,1.241,7.9,7.9,0,0,1-1.1-3.983c0-.077.012-.152.014-.229A31.041,31.041,0,0,0-314.157-423.438Zm20.361-2.741a7.882,7.882,0,0,1-.653,3.114c1.773-.539,3.363-1.141,4.517-1.62a20.881,20.881,0,0,0-3.919-2.277A7.81,7.81,0,0,1-293.8-426.18Zm-70.028,7.582c-6.994-.319-14.6-4.1-14.914-4.257l-1.815-.912,1.341-1.523c.028-.032.174-.192.413-.427a1.484,1.484,0,0,1-.138-.08,1.56,1.56,0,0,1-.549-1.065,1.554,1.554,0,0,1,.365-1.142,17.6,17.6,0,0,1,13.781-5.983,23.382,23.382,0,0,1,2.913.186c6.972.88,13.086,4.761,15.62,9.9a1.657,1.657,0,0,1,.11,1.514c-.808,1.916-8.956,3.551-14.516,3.789-.022,0-.043.011-.065.011s-.024-.006-.037-.006c-.419.017-.825.027-1.21.027C-362.967-418.569-363.4-418.578-363.824-418.6Zm8.4-7.581a7.893,7.893,0,0,1-1.1,3.979,42.51,42.51,0,0,0,5.577-1.239,31.137,31.137,0,0,0-4.5-2.968C-355.434-426.33-355.422-426.255-355.422-426.179Zm-19.743,1.493c1.154.479,2.745,1.08,4.516,1.619a7.9,7.9,0,0,1-.652-3.112c0-.263.03-.523.055-.784A20.9,20.9,0,0,0-375.165-424.686Zm98.972-7.874c-1.246-1.219-6.287-5.927-8.247-6.757a16.959,16.959,0,0,0-6.633-1.2c-8.009,0-17.466,3.947-24.371,6.831l-1.641.68a4.378,4.378,0,0,1-1.686.351,4.126,4.126,0,0,1-3.761-2.6c-.787-1.8-.327-3.587,1.1-4.244,5.684-2.619,16.8-7.012,27.432-7.012a33.945,33.945,0,0,1,5.791.475c8.757,1.523,14.248,11.174,14.477,11.585a1.574,1.574,0,0,1-.414,2.009,1.566,1.566,0,0,1-.953.323A1.558,1.558,0,0,1-276.193-432.56Zm-43.565-4.257a1.462,1.462,0,0,0,.1.309c.053.122.343.725.871.725a1.372,1.372,0,0,0,.5-.117l1.634-.68c6-2.506,13.867-5.789,21.359-6.775C-304.7-443.032-314.446-439.235-319.758-436.817Zm-71.195,4.375a1.574,1.574,0,0,1-.411-2.007c.23-.41,5.721-10.061,14.477-11.585a34.037,34.037,0,0,1,5.8-.476c10.619,0,21.741,4.394,27.426,7.013,1.424.657,1.886,2.442,1.1,4.244a4.181,4.181,0,0,1-3.763,2.6,4.389,4.389,0,0,1-1.683-.349l-1.639-.682c-6.91-2.884-16.367-6.831-24.372-6.831a16.964,16.964,0,0,0-6.634,1.2c-1.961.83-7,5.538-8.245,6.754a1.558,1.558,0,0,1-1.1.446A1.574,1.574,0,0,1-390.953-432.442Zm42.5-4.14,1.639.683a1.376,1.376,0,0,0,.5.116c.528,0,.818-.6.871-.724a1.494,1.494,0,0,0,.1-.31c-5.312-2.418-15.059-6.215-24.466-6.539C-362.317-442.369-354.452-439.087-348.45-436.582Zm39.162-51.191a1.568,1.568,0,0,1,1.567-1.566c16.294,0,29.768-9.408,29.9-9.5a1.568,1.568,0,0,1,.907-.289,1.57,1.57,0,0,1,1.279.659,1.568,1.568,0,0,1-.37,2.183c-.144.1-14.425,10.082-31.718,10.082A1.569,1.569,0,0,1-309.289-487.773Zm-65.319-3.82a1.572,1.572,0,0,1-.617-2.128c9.357-16.951,29.872-18.78,55.844-21.1,7.6-.678,15.431-1.377,23.548-2.51l.068-.01.152-.006a1.571,1.571,0,0,1,1.547,1.35,1.57,1.57,0,0,1-1.333,1.769c-8.231,1.15-16.1,1.851-23.7,2.528-25.046,2.234-44.828,4-53.378,19.488a1.565,1.565,0,0,1-1.372.809A1.574,1.574,0,0,1-374.608-491.593Zm20.122-1.842a1.554,1.554,0,0,1-.439-1.118,1.561,1.561,0,0,1,.479-1.1c6.588-6.349,21.069-6.679,35.074-7,10.478-.239,20.372-.466,25.812-3.128a1.6,1.6,0,0,1,.688-.157,1.555,1.555,0,0,1,1.408.877,1.568,1.568,0,0,1-.718,2.1c-6.058,2.964-16.286,3.2-27.117,3.446-13.4.305-27.264.622-32.971,6.122a1.563,1.563,0,0,1-1.088.438A1.575,1.575,0,0,1-354.486-493.435Z" transform="translate(434.147 540)" fill="#231815" stroke="rgba(0,0,0,0)" stroke-miterlimit="10" stroke-width="1"/>
    <g id="脱毛範囲-2" data-name="脱毛範囲" opacity="0.6" style="mix-blend-mode: multiply;isolation: isolate">
      <path id="パス_827" data-name="パス 827" d="M121.859,162.2s-3.738-4.546-10.456-1.566a30.381,30.381,0,0,1-9.972,2.559,30.384,30.384,0,0,1-9.973-2.559C84.74,157.653,81,162.2,81,162.2c-2.667,2.667-1.37,5.207.1,6.812a5.474,5.474,0,0,0,4.056,1.725h32.555a5.478,5.478,0,0,0,4.057-1.725c1.464-1.6,2.761-4.145.094-6.812" fill="#e05842"/>
      <path id="パス_828" data-name="パス 828" d="M120.216,184.037a58.573,58.573,0,0,1-37.57,0,2.369,2.369,0,0,0-3.188,2.172v12.83a4.327,4.327,0,0,0,1.322,3.125c8.284,7.951,20.651,7.523,20.651,7.523s12.366.428,20.65-7.523a4.327,4.327,0,0,0,1.322-3.125v-12.83a2.368,2.368,0,0,0-3.187-2.172" fill="#e05842"/>
      <path id="パス_829" data-name="パス 829" d="M48.155,120.976a1.767,1.767,0,0,0-2.607,1.691c.606,7.772,2.5,27.927,6.76,42.51,2.236,7.657,13.4,19.919,18.882,25.6a1.767,1.767,0,0,0,3.041-1.225V136.229a1.769,1.769,0,0,0-.922-1.552Z" fill="#e05842"/>
      <path id="パス_830" data-name="パス 830" d="M154.574,120.976a1.767,1.767,0,0,1,2.607,1.691c-.606,7.772-2.5,27.927-6.76,42.51-2.236,7.657-13.4,19.919-18.882,25.6a1.767,1.767,0,0,1-3.041-1.225V136.229a1.769,1.769,0,0,1,.922-1.552Z" fill="#e05842"/>
    </g>
  </g>
</svg>
