<svg xmlns="http://www.w3.org/2000/svg" xmlns:xlink="http://www.w3.org/1999/xlink" width="319.482" height="168.716" viewBox="0 0 319.482 168.716">
  <defs>
    <clipPath id="clip-path">
      <rect id="長方形_585" data-name="長方形 585" width="141.328" height="168.716" fill="none"/>
    </clipPath>
    <clipPath id="clip-path-2">
      <rect id="長方形_588" data-name="長方形 588" width="141.329" height="168.716" fill="none"/>
    </clipPath>
  </defs>
  <g id="VIO" transform="translate(-788.226 -206.455)">
    <g id="img" transform="translate(788.226 206.455)">
      <g id="グループ_147" data-name="グループ 147" clip-path="url(#clip-path)">
        <path id="パス_709" data-name="パス 709" d="M136.256,80.78v-.031a288.248,288.248,0,0,0-2.18-40.207,347.809,347.809,0,0,0-6.27-36.858q-.266-1.142-.532-2.253H13.933Q13.667,2.54,13.4,3.682a347.807,347.807,0,0,0-6.27,36.858,288.1,288.1,0,0,0-2.18,40.2v.031c-.01.115-.01.23-.021.344C3.741,103.93.507,132.765,1.686,167.162h60.53c1.554-18.278,3.036-37.338,3.818-53.133.031-.605.063-1.21.083-1.815.01-.157.021-.313.021-.459.031-.584.063-1.158.083-1.721.031-.866.073-1.711.1-2.546a27.954,27.954,0,0,0,4.277-2.18,27.955,27.955,0,0,0,4.277,2.18c.031.835.063,1.68.1,2.546.021.543.052,1.1.073,1.648v.052c.042.751.073,1.523.115,2.3.782,15.8,2.264,34.866,3.808,53.133h60.541c1.168-34.4-2.066-63.232-3.255-86.048,0-.115-.01-.219-.01-.334" transform="translate(0.062 0.062)" fill="#fff"/>
        <path id="パス_710" data-name="パス 710" d="M14.343.042a1.489,1.489,0,0,0-1.8,1.1q-.266,1.116-.533,2.262a350.158,350.158,0,0,0-6.3,37.023A287.978,287.978,0,0,0,3.522,80.8L3.5,81.1c-.3,5.749-.73,11.9-1.186,18.408C.937,119.185-.626,141.489.258,167.275a1.492,1.492,0,0,0,1.49,1.441H1.8a1.492,1.492,0,0,0,1.44-1.541c-.879-25.631.678-47.853,2.052-67.459.457-6.522.889-12.684,1.184-18.393.009-.086.014-.171.024-.359,0-.057.005-.146,0-.2a285.3,285.3,0,0,1,2.17-39.98A347.518,347.518,0,0,1,14.916,4.083q.266-1.138.53-2.245a1.49,1.49,0,0,0-1.1-1.8" transform="translate(0 0)"/>
        <path id="パス_711" data-name="パス 711" d="M132.6,81.175c0-.083,0-.163-.011-.323a288.1,288.1,0,0,0-2.19-40.424,350.412,350.412,0,0,0-6.3-37.021q-.264-1.147-.533-2.262a1.491,1.491,0,1,0-2.9.694q.264,1.106.53,2.244a347.626,347.626,0,0,1,6.242,36.694,285.738,285.738,0,0,1,2.17,40.065c0,.083,0,.163.007.243l.006.168c.3,5.787.733,11.959,1.191,18.494,1.374,19.6,2.932,41.81,2.062,67.427a1.491,1.491,0,0,0,1.44,1.54h.051a1.491,1.491,0,0,0,1.49-1.441c.874-25.771-.689-48.066-2.067-67.736-.458-6.521-.89-12.681-1.188-18.362" transform="translate(5.219 0)"/>
        <path id="パス_712" data-name="パス 712" d="M74.09,107.487c0-.02,0-.09,0-.11l-.073-1.663c-.04-.825-.071-1.631-.105-2.53a1.487,1.487,0,0,0-.928-1.325A26.645,26.645,0,0,1,68.933,99.8a1.493,1.493,0,0,0-1.577,0,26.646,26.646,0,0,1-4.049,2.065,1.49,1.49,0,0,0-.93,1.325l-.1,2.548c-.02.526-.049,1.061-.078,1.6,0,.027-.006.144-.006.171,0,.115-.009.239-.021.407-.02.6-.051,1.193-.082,1.793-.666,13.446-1.878,30.312-3.814,53.081a1.491,1.491,0,0,0,2.971.252c1.939-22.8,3.154-39.7,3.821-53.181.032-.614.063-1.227.082-1.8.011-.19.023-.379.026-.565.03-.562.061-1.115.079-1.658l.067-1.6a29.643,29.643,0,0,0,2.826-1.445,29.334,29.334,0,0,0,2.823,1.443q.03.8.069,1.6l.073,1.592c0,.028,0,.107,0,.135l.113,2.287c.661,13.349,1.873,30.248,3.812,53.186a1.491,1.491,0,0,0,1.483,1.365c.043,0,.085,0,.127-.005a1.492,1.492,0,0,0,1.36-1.612c-1.936-22.9-3.145-39.767-3.806-53.087Z" transform="translate(2.521 4.308)"/>
        <path id="パス_713" data-name="パス 713" d="M68.154,108.192c9.064,0,16.411-2.105,16.411-19.414H51.743c0,17.309,7.347,19.414,16.411,19.414" transform="translate(2.239 3.841)" fill="#fff"/>
        <path id="パス_714" data-name="パス 714" d="M84.627,87.349a1.491,1.491,0,0,0-1.491,1.491c0,16.574-6.757,17.923-14.92,17.923S53.3,105.414,53.3,88.84a1.491,1.491,0,1,0-2.982,0c0,17.35,7.157,20.9,17.9,20.9s17.9-3.554,17.9-20.9a1.491,1.491,0,0,0-1.491-1.491" transform="translate(2.177 3.779)"/>
        <path id="パス_715" data-name="パス 715" d="M67.843,110.031c6.011,0,8.647-3.676,8.935-29.806H58.91c.287,26.13,2.922,29.806,8.933,29.806" transform="translate(2.549 3.471)" fill="#fff"/>
        <path id="パス_716" data-name="パス 716" d="M76.855,78.8h-.017a1.49,1.49,0,0,0-1.49,1.475c-.293,26.424-3.007,28.331-7.444,28.331s-7.152-1.907-7.444-28.331A1.469,1.469,0,0,0,58.955,78.8,1.491,1.491,0,0,0,57.481,80.3c.273,24.848,2.417,31.28,10.424,31.28s10.15-6.432,10.424-31.28A1.491,1.491,0,0,0,76.855,78.8" transform="translate(2.487 3.409)"/>
        <path id="パス_717" data-name="パス 717" d="M67.795,9.6A1.491,1.491,0,0,0,66.3,11.094v4.347a1.491,1.491,0,0,0,2.982,0V11.094A1.491,1.491,0,0,0,67.795,9.6" transform="translate(2.869 0.415)"/>
        <path id="パス_718" data-name="パス 718" d="M35.168,46.708c-3.637-9.293-5.2-20.693-4.636-33.883A1.493,1.493,0,0,0,29.1,11.272,1.472,1.472,0,0,0,27.551,12.7C26.974,26.3,28.6,38.113,32.389,47.793A80.518,80.518,0,0,0,38.8,60.69a1.492,1.492,0,0,0,2.537-1.569,77.438,77.438,0,0,1-6.17-12.414" transform="translate(1.187 0.488)"/>
        <path id="パス_719" data-name="パス 719" d="M106.951,11.272a1.49,1.49,0,0,0-1.426,1.552c.56,13.192-1,24.592-4.636,33.885a77.369,77.369,0,0,1-6.17,12.413,1.491,1.491,0,1,0,2.537,1.568A80.589,80.589,0,0,0,103.666,47.8c3.787-9.681,5.416-21.489,4.837-35.1a1.493,1.493,0,0,0-1.552-1.426" transform="translate(4.088 0.488)"/>
        <path id="パス_720" data-name="パス 720" d="M136.388,76.167a264.49,264.49,0,0,0-2.056-37.527c-6.634,7.654-42.045,8.723-63.683,8.738-21.627-.011-57.16-1.069-63.807-8.739A264.331,264.331,0,0,0,4.786,76.167c.346,15.281-3.928,39.577-2.826,44.21,13.128,17.524,62.039,3.842,63.414.48.821-2.006,1.043-8.106,1.043-8.106s1.883.024,3.753.03v0H71v0c1.87-.006,3.754-.03,3.754-.03s.222,6.1,1.042,8.106c1.376,3.362,50.286,17.044,63.414-.48,1.1-4.633-3.172-28.929-2.825-44.21" transform="translate(0.077 1.672)" fill="#c2c2c2"/>
        <path id="パス_721" data-name="パス 721" d="M137.942,76.262A268.306,268.306,0,0,0,135.87,38.5a1.491,1.491,0,0,0-2.6-.772c-2.649,3.058-14.3,8.191-62.555,8.224-48.358-.025-60.029-5.163-62.681-8.224a1.491,1.491,0,0,0-2.6.772,268.3,268.3,0,0,0-2.07,37.765c.179,7.93-.93,18.607-1.82,27.186-.988,9.509-1.52,15-.965,17.336a1.507,1.507,0,0,0,.258.549c8.008,10.689,27.635,9.927,38.622,8.519,11.685-1.5,26.183-5.477,27.366-8.368.655-1.6.956-5.136,1.079-7.165.672.006,1.5.014,2.336.017h.84c.828,0,1.661-.009,2.331-.016.123,2.029.425,5.561,1.08,7.165,1.183,2.891,15.681,6.872,27.363,8.368a95.3,95.3,0,0,0,11.939.8c9.978,0,21.128-1.9,26.685-9.321a1.5,1.5,0,0,0,.259-.548c.555-2.335.023-7.829-.965-17.34-.892-8.579-2-19.254-1.82-27.182m-1.48-.033h0Zm1.418,43.58c-3.669,4.661-10.542,7.282-20.438,7.79-17.772.907-38.159-5.461-40.25-7.38a37.473,37.473,0,0,1-.883-7.461,1.5,1.5,0,0,0-1.509-1.437s-1.879.025-3.734.032h-.829c-1.861-.007-3.737-.031-3.739-.031h-.019a1.49,1.49,0,0,0-1.49,1.437,37.48,37.48,0,0,1-.882,7.461c-2.094,1.919-22.473,8.29-40.253,7.38-9.893-.508-16.766-3.13-20.435-7.79-.347-2.281.348-8.979,1.083-16.053.9-8.663,2.021-19.444,1.836-27.562A266.483,266.483,0,0,1,8.055,41.544c7.9,4.887,28.928,7.37,62.657,7.387,33.656-.023,54.643-2.507,62.532-7.387a266.673,266.673,0,0,1,1.716,34.651c-.185,8.117.937,18.9,1.836,27.558.734,7.076,1.43,13.776,1.083,16.057" transform="translate(0.015 1.61)"/>
        <path id="パス_722" data-name="パス 722" d="M114.84,70.721c-2.981.651-6.739,4.1-11.092,8.089-3.67,3.367-7.466,6.848-10.652,8.437a1.491,1.491,0,1,0,1.331,2.669c3.562-1.777,7.515-5.4,11.337-8.908,3.7-3.39,7.517-6.894,9.711-7.373a1.491,1.491,0,0,0-.635-2.914" transform="translate(3.992 3.058)"/>
        <path id="パス_723" data-name="パス 723" d="M43.382,87.249C40.2,85.66,36.4,82.179,32.73,78.812c-4.352-3.992-8.11-7.439-11.093-8.089A1.491,1.491,0,1,0,21,73.636c2.2.478,6.016,3.983,9.713,7.374,3.823,3.505,7.775,7.131,11.337,8.907a1.491,1.491,0,1,0,1.33-2.669" transform="translate(0.858 3.058)"/>
      </g>
    </g>
    <g id="img-2" data-name="img" transform="translate(966.378 206.455)">
      <g id="グループ_148" data-name="グループ 148" clip-path="url(#clip-path-2)">
        <path id="パス_724" data-name="パス 724" d="M68.153,108.192c9.064,0,16.411-2.105,16.411-19.414H51.742c0,17.309,7.347,19.414,16.411,19.414" transform="translate(2.239 3.842)" fill="#fff"/>
        <path id="パス_725" data-name="パス 725" d="M84.625,87.348a1.491,1.491,0,0,0-1.491,1.491c0,16.576-6.756,17.923-14.919,17.923s-14.921-1.348-14.921-17.923a1.491,1.491,0,1,0-2.982,0c0,17.351,7.157,20.906,17.9,20.906s17.9-3.556,17.9-20.906a1.491,1.491,0,0,0-1.491-1.491" transform="translate(2.177 3.78)"/>
        <path id="パス_726" data-name="パス 726" d="M136.477,84.755c-.073-1.231-.146-2.441-.2-3.641-.01-.115-.021-.23-.021-.344v-.031c.2-7.2-.031-15.117-.595-23.255v-.01c-.386-5.655-.939-11.413-1.607-17.12a347.237,347.237,0,0,0-6.249-36.671q-.266-1.142-.532-2.253H13.923q-.266,1.111-.532,2.253A350.1,350.1,0,0,0,7.152,40.354c-.668,5.707-1.221,11.466-1.607,17.12-.563,8.148-.793,16.066-.595,23.265v.031c-.01.125-.01.24-.021.365C4.482,89.659,3.762,99.017,3.084,109.2a562.905,562.905,0,0,0-1.4,57.964H62.216c1.544-18.163,3.015-37.1,3.808-52.831,0-.1.01-.209.01-.313.042-.762.073-1.523.1-2.264.073-1.461.136-2.879.188-4.267a24.786,24.786,0,0,0,2.389-1.106.057.057,0,0,0,.052-.031c.48-.24.96-.511,1.419-.793.146-.083.282-.167.417-.25.136.083.271.167.417.25.459.271.918.542,1.4.793a.038.038,0,0,0,.031.01c.793.417,1.607.793,2.431,1.127.052,1.367.115,2.765.177,4.194.031.772.073,1.544.115,2.337,0,.1.01.209.01.313.793,15.733,2.264,34.678,3.8,52.831h60.541a566,566,0,0,0-1.4-57.975c-.584-8.753-1.21-16.9-1.648-24.433" transform="translate(0.062 0.062)" fill="#fff"/>
        <path id="パス_727" data-name="パス 727" d="M74.193,109.485c-.038-.714-.075-1.412-.1-2.117l-.006-.156c-.061-1.372-.121-2.715-.171-4.028a1.486,1.486,0,0,0-.928-1.324c-.793-.322-1.565-.68-2.3-1.065-.038-.02-.076-.038-.115-.054-.429-.226-.841-.471-1.272-.725-.13-.075-.252-.15-.373-.224a1.489,1.489,0,0,0-1.565,0c-.122.075-.244.151-.413.248-.451.276-.891.523-1.306.73-.042.021-.08.043-.12.067a23.24,23.24,0,0,1-2.205,1.019,1.489,1.489,0,0,0-.939,1.329c-.052,1.381-.116,2.795-.188,4.26l-.008.178c-.028.678-.057,1.373-.1,2.067,0,.027-.005.139-.005.166,0,.076-.006.152-.005.154-.678,13.451-1.887,30.223-3.8,52.779a1.491,1.491,0,0,0,1.359,1.612q.064.006.128.006a1.492,1.492,0,0,0,1.484-1.366c1.922-22.591,3.133-39.4,3.812-52.883,0-.025.005-.133.005-.158,0-.075.006-.148,0-.148.039-.707.069-1.414.1-2.1l.007-.169q.083-1.7.15-3.334.811-.36,1.632-.793h0l.077-.043c.368-.186.75-.394,1.12-.612.368.215.739.428,1.123.627h0c.031.016.062.031.093.045.52.271,1.058.531,1.606.775q.063,1.524.134,3.1l.007.15c.027.71.065,1.422.1,2.148l.009.13c0,.078,0,.158.007.236l1.49-.079,1.482-.236Z" transform="translate(2.521 4.309)"/>
        <path id="パス_728" data-name="パス 728" d="M73.67,109.423l-1.489.08-1.485.231c.673,13.336,1.88,30.139,3.8,52.881a1.491,1.491,0,1,0,2.971-.25c-1.918-22.709-3.124-39.48-3.792-52.706,0-.078,0-.158-.007-.236" transform="translate(3.059 4.735)"/>
        <path id="パス_729" data-name="パス 729" d="M133.807,99.775c-.371-5.285-.722-10.278-1-15.045l-.013-.21c-.069-1.151-.137-2.284-.189-3.475-.006-.071-.016-.142-.016-.2.193-7.013-.009-14.885-.595-23.3,0-.033,0-.078,0-.112-.37-5.416-.913-11.2-1.614-17.194A349.864,349.864,0,0,0,124.1,3.407q-.266-1.149-.533-2.263a1.491,1.491,0,1,0-2.9.694q.264,1.106.53,2.245a346.86,346.86,0,0,1,6.22,36.506c.7,5.944,1.234,11.679,1.6,16.946,0,.034,0,.079,0,.114.583,8.417.782,16.193.593,23.183a3.962,3.962,0,0,0,.021.409c.049,1.14.118,2.289.188,3.456l.011.208c.279,4.782.63,9.784,1,15.079q.321,4.56.649,9.367a561.072,561.072,0,0,1,1.394,57.825,1.491,1.491,0,0,0,1.44,1.54l.052,0a1.493,1.493,0,0,0,1.49-1.441,564.14,564.14,0,0,0-1.4-58.125q-.321-4.811-.648-9.377" transform="translate(5.22 0)"/>
        <path id="パス_730" data-name="パス 730" d="M14.333.041a1.49,1.49,0,0,0-1.8,1.1Q12.267,2.259,12,3.407A353.014,353.014,0,0,0,5.734,40.242c-.7,5.989-1.245,11.774-1.613,17.19-.589,8.523-.791,16.39-.6,23.374l-.019.313c-.307,5.82-.741,12.05-1.2,18.644q-.319,4.576-.646,9.4a561.837,561.837,0,0,0-1.4,58.115,1.491,1.491,0,0,0,1.489,1.44H1.8a1.492,1.492,0,0,0,1.44-1.541A559.017,559.017,0,0,1,4.633,109.36q.321-4.818.645-9.391c.461-6.607.9-12.848,1.2-18.64.006-.089.011-.173.015-.258l.007-.119c0-.054.005-.14,0-.193-.191-6.905.008-14.685.592-23.123.366-5.37.9-11.106,1.6-17.045a350.189,350.189,0,0,1,6.21-36.509q.266-1.139.53-2.244a1.492,1.492,0,0,0-1.1-1.8" transform="translate(0 0)"/>
        <path id="パス_731" data-name="パス 731" d="M134.322,38.639c-18.043,6.678-42.223,8.708-63.7,8.736-21.5-.023-45.72-2.05-63.788-8.736A191.433,191.433,0,0,0,4.776,76.167c-.5,12.736-4.037,38.047-2.4,44.211,17.708,8.132,53.334,8.132,63.277.254.821-2.006.952-8.312.952-8.312a27.5,27.5,0,0,0,3.558.44v.024c.143,0,.286-.007.429-.01s.273.01.409.01v-.023a27.6,27.6,0,0,0,3.558-.441s.132,6.307.953,8.313c9.943,7.878,45.569,7.878,63.278-.255,1.633-6.164-1.906-31.474-2.406-44.211a191.442,191.442,0,0,0-2.056-37.528" transform="translate(0.084 1.672)" fill="#c2c2c2"/>
        <path id="パス_732" data-name="パス 732" d="M137.933,76.238a194.8,194.8,0,0,0-2.079-37.788,1.491,1.491,0,0,0-1.986-1.147c-19.187,7.1-44.952,8.62-63.183,8.644-18.263-.02-44.063-1.536-63.272-8.645a1.493,1.493,0,0,0-1.987,1.147,194.809,194.809,0,0,0-2.079,37.79C3.167,80.721,2.618,86.7,2.037,93.023.925,105.145-.127,116.594.992,120.82a1.494,1.494,0,0,0,.819.973c18.052,8.29,54.4,8.327,64.826.068a1.48,1.48,0,0,0,.454-.6c.638-1.561.9-5.02,1-7.139.53.069,1.143.136,1.78.176a2.676,2.676,0,0,0,.705.033l.033,0,.119,0a2.541,2.541,0,0,0,.664-.032c.641-.041,1.259-.107,1.792-.177.1,2.12.364,5.578,1,7.139a1.493,1.493,0,0,0,.454.6c5.2,4.117,16.832,6.172,29.433,6.172,12.68,0,26.34-2.082,35.393-6.24a1.494,1.494,0,0,0,.819-.973c1.119-4.227.068-15.676-1.045-27.8-.581-6.326-1.13-12.3-1.309-16.785m-.388,43.15c-16.995,7.4-50.8,7.628-60.713.393a40.838,40.838,0,0,1-.725-7.431,1.491,1.491,0,0,0-1.784-1.43,26.383,26.383,0,0,1-3.34.413c-.051,0-.1.008-.148.016l-.226,0-.156,0a1.475,1.475,0,0,0-.155-.016,26.057,26.057,0,0,1-3.34-.414,1.492,1.492,0,0,0-1.784,1.431,40.926,40.926,0,0,1-.724,7.43c-9.914,7.236-43.718,7.007-60.714-.392-.723-4.357.334-15.869,1.273-26.092.587-6.4,1.142-12.44,1.322-17.009,0-.046,0-.092,0-.138A192.434,192.434,0,0,1,8.093,40.713c19.411,6.735,44.618,8.2,62.591,8.216,17.943-.024,43.113-1.489,62.5-8.215a192.4,192.4,0,0,1,1.766,35.436,1.191,1.191,0,0,0,0,.137c.179,4.568.734,10.611,1.321,17.009.94,10.223,2,21.737,1.273,26.092m1.3,1.052h0Z" transform="translate(0.022 1.61)"/>
        <path id="パス_733" data-name="パス 733" d="M68.87,100.545c-16.279,7.7-39.6,4.542-40.589,4.4-8.432-1.184-13.408-4.447-16.135-10.584a1.491,1.491,0,1,0-2.724,1.211c3.148,7.085,9.009,11,18.445,12.325a99.264,99.264,0,0,0,13.053.819c8.584,0,19.861-1.05,29.225-5.479a1.491,1.491,0,0,0-1.276-2.7" transform="translate(0.402 4.045)"/>
        <path id="パス_734" data-name="パス 734" d="M127.847,93.607a1.491,1.491,0,0,0-1.968.757c-1.842,4.146-5.047,8.194-15.919,9.72-9.6,1.347-27.661,2.678-40.806-3.54a1.491,1.491,0,0,0-1.275,2.7c8.082,3.823,17.822,4.951,26.508,4.951a116.864,116.864,0,0,0,15.986-1.155c9.821-1.378,15.274-4.806,18.231-11.461a1.491,1.491,0,0,0-.757-1.969" transform="translate(2.901 4.045)"/>
        <path id="パス_735" data-name="パス 735" d="M67.794,63.6A1.491,1.491,0,0,0,66.3,65.094v37.262a1.491,1.491,0,0,0,2.982,0V65.094A1.491,1.491,0,0,0,67.794,63.6" transform="translate(2.869 2.752)"/>
        <path id="パス_736" data-name="パス 736" d="M50.623,34.636a44.538,44.538,0,0,1-12.05-16.571,1.491,1.491,0,1,0-2.73,1.2A47.125,47.125,0,0,0,48.592,36.819c2.979,2.773,5.551,5.168,7.441,9.425a1.491,1.491,0,0,0,2.726-1.21c-2.137-4.814-5.05-7.525-8.135-10.4" transform="translate(1.546 0.743)"/>
        <path id="パス_737" data-name="パス 737" d="M99.515,17.2a1.49,1.49,0,0,0-1.968.76,44.994,44.994,0,0,1-12.12,16.617c-3.094,2.882-6.018,5.6-8.172,10.421a1.491,1.491,0,1,0,2.722,1.218c1.908-4.266,4.491-6.672,7.482-9.456a47.587,47.587,0,0,0,12.814-17.593,1.489,1.489,0,0,0-.758-1.967" transform="translate(3.338 0.739)"/>
      </g>
    </g>
    <g id="脱毛範囲_VIO_" data-name="脱毛範囲（VIO）" opacity="0.7" style="mix-blend-mode: multiply;isolation: isolate">
      <path id="脱毛範囲_VIO-正面_" data-name="脱毛範囲（VIO-正面）" d="M66,73.251h-.087c-4.325,0-6.372-.124-10.435-5.416C48.265,57.7,31.7,46.741,22.608,37.563S-.424,32.287.01,24.142,1.93,0,1.93,0s8.745,5.45,24.965,7.022C42.531,8.538,64.366,8.365,65.916,8.351H66c1.55.014,23.385.187,39.022-1.329C121.245,5.45,129.991,0,129.991,0s1.486,16,1.92,24.142-13.511,4.244-22.6,13.422S83.655,57.7,76.439,67.835C72.376,73.126,70.329,73.25,66,73.251h0Z" transform="translate(792.996 247.65)" fill="#e05842"/>
      <circle id="脱毛範囲_VIO-背面_" data-name="脱毛範囲（VIO-背面）" cx="10" cy="10" r="10" transform="translate(1027 301)" fill="#e05842"/>
    </g>
  </g>
</svg>
